<svg width="50" height="55" viewBox="0 0 50 55" fill="none" xmlns="http://www.w3.org/2000/svg">
<g id="icone boneco">
<path id="icon/social/person_24px" fill-rule="evenodd" clip-rule="evenodd" d="M24.6808 9.35156C20.1531 9.35156 16.4859 13.3664 16.4859 18.3233C16.4859 23.2802 20.1531 27.2951 24.6808 27.2951C29.2084 27.2951 32.8757 23.2802 32.8757 18.3233C32.8757 13.3664 29.2084 9.35156 24.6808 9.35156ZM28.7782 18.3233C28.7782 15.8561 26.9344 13.8374 24.6808 13.8374C22.4272 13.8374 20.5833 15.8561 20.5833 18.3233C20.5833 20.7905 22.4272 22.8092 24.6808 22.8092C26.9344 22.8092 28.7782 20.7905 28.7782 18.3233ZM36.9731 40.7527C36.5633 39.1602 30.2123 36.2668 24.6808 36.2668C19.1697 36.2668 12.8597 39.1378 12.3885 40.7527H36.9731ZM8.29102 40.7527C8.29102 34.7865 19.2107 31.7809 24.6808 31.7809C30.1509 31.7809 41.0705 34.7865 41.0705 40.7527V45.2385H8.29102V40.7527Z" fill="white"/>
</g>
</svg>
