<svg width="47" height="39" viewBox="0 0 47 39" fill="none" xmlns="http://www.w3.org/2000/svg">
<path d="M45.747 18.4654C43.9185 14.8078 41.7424 11.8248 39.2189 9.51646L36.5723 12.0293C38.7305 13.9874 40.6104 16.5491 42.2359 19.7395C37.9081 28.2439 31.7649 32.2838 23.3694 32.2838C20.8494 32.2838 18.5282 31.9154 16.4059 31.1785L13.5382 33.9012C16.4859 35.1935 19.7629 35.8396 23.3694 35.8396C33.367 35.8396 40.8263 30.896 45.747 21.0088C45.9449 20.6111 46.0475 20.1768 46.0475 19.7371C46.0475 19.2973 45.9449 18.863 45.747 18.4654ZM42.4403 2.62996L40.2229 0.522126C40.1842 0.485391 40.1383 0.45625 40.0878 0.436367C40.0373 0.416484 39.9831 0.40625 39.9284 0.40625C39.8738 0.40625 39.8196 0.416484 39.7691 0.436367C39.7186 0.45625 39.6727 0.485391 39.634 0.522126L33.9449 5.92109C30.8083 4.39998 27.2832 3.63942 23.3694 3.63942C13.3718 3.63942 5.91257 8.58304 0.991779 18.4703C0.793987 18.8679 0.691406 19.3022 0.691406 19.742C0.691406 20.1818 0.793987 20.6161 0.991779 21.0137C2.95767 24.9449 5.32443 28.0959 8.09207 30.4668L2.58765 35.6915C2.50967 35.7656 2.46587 35.866 2.46587 35.9708C2.46587 36.0755 2.50967 36.176 2.58765 36.25L4.80825 38.3584C4.88628 38.4324 4.99209 38.474 5.10241 38.474C5.21272 38.474 5.31853 38.4324 5.39656 38.3584L42.4403 3.18902C42.479 3.15232 42.5097 3.10875 42.5307 3.06078C42.5516 3.01282 42.5624 2.96141 42.5624 2.90949C42.5624 2.85756 42.5516 2.80615 42.5307 2.75819C42.5097 2.71022 42.479 2.66665 42.4403 2.62996ZM4.50291 19.7395C8.83591 11.2351 14.9791 7.19527 23.3694 7.19527C26.2064 7.19527 28.7859 7.65754 31.1262 8.59737L27.4694 12.0693C25.7376 11.192 23.7546 10.8664 21.8131 11.1405C19.8716 11.4147 18.0742 12.274 16.6862 13.5918C15.2983 14.9096 14.3932 16.6161 14.1044 18.4594C13.8157 20.3028 14.1586 22.1855 15.0826 23.8297L10.7434 27.9496C8.34175 25.9371 6.27148 23.2104 4.50291 19.7395ZM17.3355 19.7395C17.3364 18.8687 17.5536 18.0103 17.9696 17.2341C18.3856 16.458 18.9885 15.7859 19.7294 15.2725C20.4704 14.7592 21.3284 14.419 22.2338 14.2796C23.1392 14.1403 24.0665 14.2056 24.9403 14.4704L17.6117 21.4286C17.428 20.8825 17.3348 20.3127 17.3355 19.7395Z" fill="white"/>
<path d="M23.1635 25.2712C22.9835 25.2712 22.8062 25.2633 22.6303 25.2479L19.8828 27.8566C21.5353 28.4574 23.3358 28.5909 25.0665 28.241C26.7973 27.891 28.3842 27.0726 29.6355 25.8846C30.8868 24.6966 31.7488 23.1899 32.1174 21.5466C32.486 19.9034 32.3453 18.194 31.7125 16.625L28.9649 19.2336C28.9811 19.4005 28.9894 19.5689 28.9894 19.7398C28.9898 20.4663 28.8394 21.1858 28.5468 21.857C28.2541 22.5283 27.825 23.1382 27.2839 23.6519C26.7429 24.1656 26.1005 24.5731 25.3935 24.8509C24.6865 25.1287 23.9287 25.2715 23.1635 25.2712V25.2712Z" fill="white"/>
</svg>
