<svg width="57" height="55" viewBox="0 0 57 55" fill="none" xmlns="http://www.w3.org/2000/svg">
<path fill-rule="evenodd" clip-rule="evenodd" d="M5.16602 11.5C5.16602 10.3954 6.07442 9.5 7.195 9.5H49.8037C50.9243 9.5 51.8327 10.3954 51.8327 11.5C51.8327 12.6046 50.9243 13.5 49.8037 13.5H7.195C6.07442 13.5 5.16602 12.6046 5.16602 11.5ZM5.16602 27.5C5.16602 26.3954 6.07442 25.5 7.195 25.5H49.8037C50.9243 25.5 51.8327 26.3954 51.8327 27.5C51.8327 28.6046 50.9243 29.5 49.8037 29.5H7.195C6.07442 29.5 5.16602 28.6046 5.16602 27.5ZM5.16602 43.5C5.16602 42.3954 6.07442 41.5 7.195 41.5H49.8037C50.9243 41.5 51.8327 42.3954 51.8327 43.5C51.8327 44.6046 50.9243 45.5 49.8037 45.5H7.195C6.07442 45.5 5.16602 44.6046 5.16602 43.5Z" fill="black"/>
</svg>
