<svg width="276" height="149" viewBox="0 0 276 149" fill="none" xmlns="http://www.w3.org/2000/svg">
<path d="M223.023 119.697C223.701 119.053 223.545 118.236 223.527 117.401C223.551 116.309 223.662 115.221 223.858 114.147C225.17 114.382 226.495 114.544 227.825 114.634C229.286 114.634 230.33 113.921 230.33 112.895C230.356 111.851 230.142 110.815 229.704 109.867C228.15 107.113 225.753 104.93 222.866 103.639C218.553 101.408 214.008 99.6581 209.313 98.4196C209.726 98.2632 210.151 98.141 210.583 98.0542C212.08 98.0542 213.593 98.0542 215.072 97.8976C216.34 97.7397 217.58 97.412 218.76 96.9234C220.97 96.0013 221.405 94.7834 220.5 92.6261C220.135 91.8084 219.648 91.0255 218.969 89.7381C221.666 90.6601 223.858 91.3734 226.015 92.1737C227.633 92.7653 229.164 93.5656 230.8 94.0875C233.293 94.8607 235.644 96.036 237.759 97.5671C239.426 98.8325 241.169 99.9945 242.978 101.047C243.444 101.404 243.991 101.641 244.571 101.738C245.15 101.834 245.745 101.787 246.302 101.599C246.858 101.412 247.361 101.091 247.764 100.664C248.167 100.237 248.46 99.7168 248.615 99.1503C248.841 98.6805 248.998 98.1934 249.224 97.6019C250.111 97.8976 250.964 98.2456 251.799 98.437C254.704 99.0981 256.166 97.4801 255.278 94.6616C254.944 93.5431 254.334 92.5267 253.504 91.7058C252.674 90.8849 251.651 90.286 250.529 89.9642L247.571 88.729L247.728 88.2766C250.598 88.9552 253.469 89.5815 256.427 90.2948C260.48 91.3387 264.517 92.5043 268.605 93.4612C269.562 93.703 270.574 93.6065 271.468 93.1879C272.362 92.7694 273.084 92.0546 273.511 91.1647C274.381 89.7033 274.068 88.294 272.572 86.4847C272.067 85.8757 271.632 85.2146 271.076 84.4491C272.259 83.8576 273.216 83.44 274.103 82.9007C274.524 82.7244 274.883 82.4267 275.134 82.0455C275.385 81.6644 275.517 81.2171 275.512 80.7608C275.425 79.7865 274.66 79.4559 273.772 79.1602C269.051 77.5735 263.987 77.3029 259.123 78.3773C255.687 79.2483 252.136 79.577 248.598 79.3515C250.564 78.1163 252.547 76.8984 254.513 75.6458C255.068 75.4073 255.519 74.9777 255.784 74.4349C256.049 73.8922 256.11 73.2724 255.957 72.6882C255.644 71.105 255.122 70.4786 253.434 70.3221C252.178 70.2879 250.921 70.3578 249.676 70.5308C249.195 70.6123 248.718 70.7227 248.25 70.8614C248.061 70.3434 247.764 69.8713 247.379 69.4759C246.995 69.0805 246.531 68.7709 246.019 68.5672C245.506 68.3635 244.957 68.2704 244.406 68.294C243.855 68.3176 243.315 68.4573 242.822 68.7041C238.49 70.1133 235.167 73.0709 231.704 75.785C228.661 78.5049 225.295 80.842 221.683 82.7441C220.535 81.9786 219.335 81.0043 218.03 80.378C216.963 79.7199 215.783 79.2657 214.55 79.0384C212.254 78.8122 209.922 79.0384 207.591 78.8644C207.032 78.9501 206.461 78.9135 205.917 78.7574C205.374 78.6012 204.87 78.3291 204.442 77.9597C205.76 77.484 207.191 77.4173 208.548 77.7683C211.923 78.2381 213.663 76.5331 212.828 73.6798C212.798 73.513 212.798 73.3422 212.828 73.1753C213.176 72.9665 213.558 72.7578 213.924 72.4968C215.664 71.3659 214.881 69.7653 213.541 69.1738C213.069 68.9487 212.55 68.8412 212.027 68.8606C210.027 68.9824 208.026 69.1738 206.025 69.3826C205.103 69.4696 204.164 69.9045 203.329 69.0694C204.024 68.365 204.878 67.8389 205.821 67.536C206.763 67.233 207.764 67.1623 208.739 67.3296C212.394 67.6241 216.013 68.2708 219.543 69.2608C221.721 69.8331 223.928 70.2861 226.155 70.6178C229.495 71.0006 231.374 68.5823 230.417 65.3985L230.086 64.285C230.618 64.1266 231.14 63.9407 231.652 63.7283C233.253 62.928 233.288 62.3365 232.279 60.7707C231.777 59.9689 231.031 59.3498 230.151 59.0051C229.27 58.6604 228.302 58.6085 227.39 58.8569C226.934 58.9656 226.458 58.9588 226.005 58.8373C225.553 58.7158 225.138 58.4834 224.798 58.161C225.784 57.6218 226.829 57.1958 227.912 56.8909C230.606 56.2477 233.371 55.9496 236.141 56.0036C238.007 55.9364 239.864 55.7094 241.691 55.3251C242.778 55.1191 243.76 54.5412 244.468 53.6905C245.176 52.8398 245.566 51.7692 245.571 50.6625C245.589 49.6789 245.292 48.7153 244.722 47.9134C244.152 47.1116 243.339 46.514 242.404 46.2087C241.795 45.9469 241.212 45.6264 240.664 45.2518C240.264 41.5634 239.725 41.0589 236.228 40.9719C236.019 40.9719 235.793 40.9719 235.567 40.9719C232.869 41.0314 230.249 41.8847 228.034 43.425C226.296 44.7028 224.329 45.6359 222.24 46.1739C223.145 44.4341 223.284 43.0944 222.153 41.9462C220.413 40.2064 218.778 41.2503 217.212 42.2941L216.673 41.6678C215.455 40.2238 214.672 40.1368 213.385 41.4764C212.557 42.2333 211.883 43.1431 211.401 44.1557C209.348 49.3751 206.669 54.5944 205.59 60.1965C205.545 60.6914 205.356 61.1624 205.047 61.5517C204.738 61.941 204.322 62.2318 203.85 62.3887L198.996 64.1284C198.005 62.2147 196.456 61.7971 194.125 62.1973C194.751 61.3448 194.995 60.6315 195.395 60.4575C196.804 60.0921 196.944 58.9265 197.135 57.8652C197.274 57.102 197.338 56.327 197.326 55.5513L194.856 53.5158C195.601 52.1171 196.745 50.9723 198.144 50.2276C200.95 48.6842 203.339 46.4808 205.103 43.8078C205.663 42.6108 206.546 41.594 207.653 40.8717C208.759 40.1493 210.045 39.7502 211.366 39.7193C212.184 39.7193 213.002 39.4931 213.819 39.4409L227.024 38.6406C229.281 38.4936 231.486 37.9024 233.514 36.9008C234.122 36.6168 234.643 36.1753 235.022 35.622C235.402 35.0688 235.626 34.424 235.672 33.7546C235.719 33.0852 235.585 32.4157 235.285 31.8156C234.985 31.2154 234.529 30.7066 233.966 30.3418C233.67 30.1505 233.427 29.8895 232.974 29.5241C234.993 28.2715 234.836 26.5665 234.505 24.6875C234.297 23.4349 233.653 22.9477 232.592 22.9477C231.334 23.0913 230.09 23.3297 228.869 23.6611C228.103 23.8176 227.355 24.0438 226.102 24.3744C226.395 23.763 226.745 23.1805 227.146 22.6346C229.634 20.1467 232.157 17.6936 234.679 15.2405C235.65 14.4799 236.438 13.5117 236.986 12.4069C237.534 11.3021 237.828 10.0886 237.846 8.8555C237.836 8.26693 237.691 7.68847 237.423 7.16471C237.154 6.64095 236.768 6.18588 236.296 5.83457C235.824 5.48326 235.277 5.2451 234.698 5.13843C234.119 5.03177 233.524 5.05945 232.957 5.21935C232.279 5.42813 231.583 5.58471 230.765 5.81088C230.765 5.06277 230.765 4.62783 230.626 4.19288C230.544 3.09917 230.069 2.07207 229.289 1.30135C228.508 0.530627 227.475 0.0683742 226.381 0C223.945 0.104387 222.083 0.974279 221.701 3.60135C221.492 5.31193 221.131 7.00044 220.622 8.64673C219.735 11.2564 218.656 13.8661 217.595 16.354C217.301 16.894 216.951 17.4013 216.551 17.8676L216.064 17.7284C215.888 17.0504 215.777 16.3571 215.733 15.6581C215.733 13.5703 215.89 11.4652 215.907 9.37743C216.011 7.94303 215.952 6.5015 215.733 5.08017C215.638 4.57911 215.42 4.1097 215.097 3.71457C214.775 3.31944 214.359 3.01109 213.887 2.81752C213.415 2.62396 212.902 2.5513 212.395 2.60615C211.888 2.661 211.403 2.84162 210.984 3.13161C210.006 3.53368 209.133 4.15311 208.431 4.94291C207.728 5.73271 207.215 6.67211 206.93 7.68984C206.908 7.9558 206.82 8.212 206.673 8.43514C206.527 8.65829 206.327 8.84129 206.092 8.9675C205.857 9.09372 205.594 9.15913 205.327 9.1578C205.06 9.15647 204.798 9.08844 204.564 8.95989C204.127 8.83178 203.659 8.84902 203.233 9.00902C202.806 9.16901 202.443 9.46313 202.198 9.84718C201.65 10.5249 201.376 11.3836 201.431 12.2535C201.486 13.1233 201.865 13.9409 202.493 14.5446C202.876 14.9621 203.45 15.4145 203.503 15.919C204.073 19.1634 204.201 22.4699 203.885 25.7488C203.59 27.593 203.329 29.4545 203.189 31.3161C203.044 33.3286 202.112 35.2032 200.597 36.5355C199.811 35.9363 199.056 35.2976 198.335 34.6217C198.022 34.2737 197.726 33.5604 197.883 33.2473C198.979 31.0377 198.492 28.1845 200.667 26.4273C200.859 26.1959 200.975 25.91 200.997 25.6096C201.154 23.3653 201.415 21.121 201.397 18.8941C201.38 16.6671 200.858 16.267 198.527 16.267C198.286 16.2153 198.056 16.121 197.848 15.9886C197.834 15.5503 197.875 15.1119 197.97 14.6838C198.136 14.1852 198.198 13.6581 198.153 13.1346C198.109 12.6111 197.957 12.1022 197.709 11.6392C197.584 11.1793 197.324 10.7677 196.961 10.4584C196.599 10.1491 196.151 9.95651 195.677 9.90575C195.204 9.85498 194.726 9.94846 194.306 10.1739C193.886 10.3994 193.544 10.7464 193.325 11.1694C192.814 12.2756 192.457 13.4463 192.264 14.649C191.582 13.1803 191.069 11.6396 190.733 10.056C190.397 7.8239 189.505 5.71205 188.14 3.91451C187.819 3.31615 187.347 2.81292 186.769 2.45556C186.192 2.09819 185.531 1.89931 184.852 1.87897C184.136 1.83052 183.424 2.02837 182.836 2.43973C182.247 2.85108 181.817 3.45124 181.616 4.14069C181.446 4.43533 181.235 4.7047 180.99 4.94099C180.798 4.94099 180.711 4.94099 180.642 4.94099C179.789 4.50604 178.902 4.0363 178.084 3.60135C177.728 3.3457 177.312 3.1835 176.877 3.12956C176.441 3.07563 175.999 3.13167 175.591 3.29258C175.183 3.45349 174.821 3.71413 174.539 4.05071C174.258 4.38728 174.065 4.78906 173.978 5.21935C173.709 5.9269 173.625 6.69164 173.735 7.44079C173.844 8.18994 174.144 8.89856 174.605 9.49922C176.014 11.3434 177.528 13.1006 178.972 14.9273C179.297 15.4138 179.582 15.9258 179.824 16.4584L179.441 16.7367C178.693 16.3018 177.58 16.0234 177.267 15.3623C176.345 13.3963 174.466 12.9266 172.83 12.1263C172.371 11.8971 171.868 11.7721 171.355 11.7602C170.842 11.7484 170.334 11.85 169.865 12.0578C169.396 12.2656 168.979 12.5745 168.643 12.9623C168.308 13.3501 168.062 13.8072 167.924 14.301C167.538 14.9535 167.384 15.7167 167.485 16.4679C167.586 17.219 167.936 17.9142 168.481 18.4417C168.672 18.5983 168.689 18.9636 168.829 19.3464C168.481 19.5726 168.168 19.7639 167.889 19.9727C165.297 21.9735 165.019 23.9046 167.367 26.1837C168.678 27.3908 170.199 28.3463 171.856 29.0022C174.483 30.0635 177.284 30.742 179.946 31.6641C182.423 32.4629 184.649 33.8964 186.4 35.8222C186.343 36.009 186.267 36.1897 186.174 36.3615C184.748 38.6232 182.695 40.5022 181.825 43.1292C181.157 44.6702 179.994 45.9439 178.519 46.748C178.711 45.6171 178.867 44.8864 178.954 44.1731C179.175 43.1498 179.286 42.1058 179.285 41.0589C179.29 40.4216 179.133 39.7934 178.829 39.2334C178.524 38.6734 178.083 38.2 177.545 37.8577C176.745 37.4575 175.161 38.5188 174.292 39.8411C173.77 40.6414 173.195 41.3895 172.656 42.1724C171.973 41.7454 171.184 41.5175 170.379 41.514C169.573 41.5106 168.783 41.7319 168.096 42.1529C167.409 42.574 166.853 43.1783 166.491 43.8978C166.129 44.6173 165.974 45.4236 166.045 46.2261C166.142 48.0241 165.79 49.8181 165.019 51.4454C164.21 51.2157 163.369 51.1274 162.531 51.1844C161.719 51.357 160.959 51.7156 160.31 52.2318C159.661 52.7481 159.141 53.4079 158.79 54.1595C158.303 55.3193 157.833 56.4792 157.381 57.639C157.285 58.1041 157.095 58.5447 156.823 58.9336C156.551 59.3226 156.202 59.6517 155.798 59.9008C155.872 59.2633 156.006 58.6342 156.198 58.0218C157.537 54.9424 159.016 51.8978 160.269 48.7661C161.023 46.8976 161.605 44.9642 162.009 42.9901C162.107 42.385 162.001 41.7645 161.708 41.226C161.415 40.6875 160.952 40.2616 160.391 40.015C159.888 39.676 159.284 39.5188 158.68 39.5694C158.076 39.62 157.507 39.8754 157.068 40.2934C156.859 40.4848 156.581 40.624 156.354 40.8327C155.502 41.5982 154.841 41.2329 154.284 40.4674C154.063 40.0796 153.865 39.6787 153.693 39.2669C152.701 37.5271 150.874 37.4054 149.186 37.301C147.499 37.1966 146.82 38.3622 146.194 39.6323C145.711 40.4727 145.4 41.4005 145.277 42.362C145.155 43.3235 145.224 44.2997 145.481 45.2344C146.201 47.4792 146.426 49.8533 146.142 52.1935C145.885 51.3929 145.447 50.6624 144.861 50.0589C144.276 49.4553 143.559 48.9951 142.767 48.7139C141.218 48.0702 140.157 48.1572 139.931 49.636C139.461 52.6459 137.669 53.4114 135.077 53.4288C134.955 53.4288 134.816 53.307 134.764 53.2896C133.546 49.1489 132.38 45.0604 131.128 40.9893C129.875 36.9182 128.883 36.5355 125.264 38.1013C124.203 37.3184 123.038 36.6224 121.663 37.6315C120.63 38.3603 119.897 39.4392 119.599 40.6679C119.301 41.8967 119.46 43.1916 120.045 44.3123C118.723 43.1814 117.888 42.4507 117.035 41.7548C116.191 41.0162 115.302 40.3305 114.373 39.7019C113.684 39.1805 112.856 38.8753 111.993 38.8251C111.13 38.7748 110.272 38.9816 109.527 39.4194C108.782 39.8571 108.183 40.5061 107.807 41.2842C107.431 42.0623 107.294 42.9345 107.414 43.7904C107.465 44.3476 107.558 44.9002 107.693 45.4432C107.066 45.9651 106.423 46.4696 105.814 47.009C103.204 49.2185 103.361 52.1935 106.127 53.9333C107.517 54.9823 109.222 55.5282 110.963 55.4817C111.641 55.4594 112.314 55.5965 112.929 55.8819C116.165 57.2041 119.384 58.5785 122.603 59.9704C122.724 59.9704 122.724 60.3357 122.759 60.4575C120.497 60.2139 118.271 59.9008 116.044 59.7442C115.328 59.6443 114.6 59.7962 113.985 60.1739C113.369 60.5516 112.904 61.1315 112.668 61.8145C112.356 62.5477 112.305 63.3658 112.523 64.1321C112.742 64.8985 113.217 65.5666 113.869 66.0248C114.513 66.5467 115.226 66.9643 115.87 67.4862C116.148 67.7124 116.583 68.0777 116.548 68.3213C116.287 69.8523 116.774 71.5573 115.591 72.8795C116.59 74.707 118.234 76.0965 120.202 76.7767C121.099 77.1401 121.915 77.6783 122.603 78.3599C123.682 79.2577 124.378 80.5332 124.549 81.9264C124.721 83.3197 124.354 84.7258 123.525 85.8583C122.742 87.1458 121.559 87.4937 119.697 87.7895C120.219 86.9022 120.497 86.4499 120.758 86.0497C120.985 85.7475 121.13 85.3919 121.178 85.0174C121.227 84.6429 121.178 84.2621 121.036 83.9121C120.894 83.562 120.665 83.2546 120.369 83.0194C120.073 82.7843 119.722 82.6296 119.349 82.5701C118.636 82.3269 117.871 82.2792 117.134 82.4322C116.396 82.5852 115.713 82.9333 115.156 83.44C114.069 84.3157 112.905 85.0902 111.677 85.7539C114.049 81.9013 115.424 77.5185 115.678 73.0013C115.278 69.5218 112.39 69.5218 109.815 69.2782C109.815 68.9128 109.815 68.6171 109.728 68.3387C109.616 67.4551 109.213 66.6339 108.583 66.0041C107.953 65.3743 107.132 64.9716 106.249 64.8591C105.475 64.6664 104.661 64.7167 103.917 65.003C103.173 65.2894 102.535 65.7981 102.091 66.4597C101.676 67.0482 101.42 67.7344 101.35 68.4511C101.28 69.1678 101.397 69.8904 101.69 70.5482C102.195 72.288 102.804 74.0278 103.43 75.6806C103.827 76.7873 103.999 77.962 103.937 79.1361C103.874 80.3101 103.577 81.4599 103.065 82.518C102.717 80.7782 102.525 79.2472 102.073 77.7683C101.935 77.3606 101.709 76.9885 101.409 76.679C101.11 76.3695 100.746 76.1304 100.343 75.9789C99.9403 75.8274 99.5088 75.7673 99.0798 75.803C98.6509 75.8386 98.2352 75.9692 97.8629 76.1851C97.3676 76.499 96.8912 76.8418 96.4362 77.2116C95.4703 76.6734 94.3585 76.4558 93.261 76.5903C92.1634 76.7247 91.137 77.2043 90.3296 77.9597C89.765 78.4042 89.3086 78.971 88.9949 79.6174C88.6811 80.2638 88.518 80.973 88.518 81.6916C88.518 82.4101 88.6811 83.1193 88.9949 83.7657C89.3086 84.4121 89.765 84.9789 90.3296 85.4234C91.0577 86.017 91.5934 86.8131 91.8691 87.7112C92.1447 88.6093 92.1478 89.5689 91.878 90.4688C91.5776 91.5518 91.4139 92.6681 91.3909 93.7917C91.4069 94.6215 91.2068 95.4411 90.8102 96.1701C90.4137 96.8991 89.8344 97.5124 89.1291 97.9498C88.0957 98.7028 86.9511 99.2898 85.7366 99.6896C82.9181 100.49 80.0475 101.081 77.2116 101.812C71.8821 103.397 66.6532 105.303 61.5536 107.519C57.1519 109.258 52.8546 111.19 48.4704 112.982C43.9936 114.507 39.6474 116.393 35.4742 118.618C32.6557 120.358 29.7503 121.907 27.071 123.838C22.739 126.882 18.7549 130.414 13.8139 132.902C13.9561 133.389 14.1796 133.847 14.475 134.259C15.5436 135.247 16.9071 135.858 18.356 135.996C19.8049 136.134 21.2592 135.793 22.4954 135.025C24.4092 133.842 26.2185 132.485 28.1323 131.336C31.4205 129.388 34.7435 127.474 38.1013 125.647C41.4591 123.82 44.6081 122.168 47.8615 120.55C48.7547 120.084 49.6203 119.567 50.4537 119.001C55.5455 115.67 60.9891 112.91 66.6859 110.772C71.401 109.015 76.2317 107.585 81.1435 106.492C85.132 105.564 89.2375 105.241 93.322 105.535C95.2623 105.595 97.1999 105.349 99.0633 104.805C102.752 103.848 106.353 102.525 110.059 101.656C112.661 101.204 115.334 101.383 117.853 102.178C118.01 102.178 118.097 102.491 118.392 102.873C117.418 103.03 116.653 103.169 115.835 103.256C113.764 103.517 111.659 103.622 109.606 103.987C104.735 104.857 99.8462 105.727 95.0444 106.805C87.6851 108.545 80.2214 109.867 73.0361 112.32C67.445 114.201 61.9871 116.456 56.6996 119.071C53.0286 120.915 49.4621 122.951 45.9303 125.056C44.3068 126.128 42.7444 127.289 41.2503 128.535C40.791 128.912 40.2888 129.233 39.7541 129.492C37.2836 130.571 34.7957 131.649 32.273 132.606C30.0287 133.459 27.7496 134.207 25.453 134.938C23.1565 135.668 21.1384 136.138 18.9984 136.799C14.2836 138.261 9.6384 139.966 4.61043 140.105C4.19673 140.102 3.7904 140.214 3.43701 140.429C3.08361 140.645 2.79713 140.954 2.60968 141.323C1.89636 142.871 1.00907 144.402 0 146.142C0.678218 146.619 1.38089 147.06 2.10514 147.464C3.9181 148.217 5.92598 148.364 7.82903 147.882C14.0346 146.606 20.0713 144.615 25.8184 141.949C25.9465 142.195 26.0979 142.428 26.2707 142.645C28.8282 145.115 30.916 146.507 33.9606 144.994C34.2981 144.859 34.6056 144.659 34.8654 144.406C35.1252 144.152 35.3321 143.849 35.4742 143.515C35.9173 142.75 36.5088 142.082 37.214 141.549C37.7011 141.079 38.2926 140.749 38.7972 140.296C41.3025 138.174 43.7556 135.947 46.3131 133.894C47.6101 132.883 48.996 131.992 50.4537 131.232C51.4522 130.74 52.495 130.344 53.568 130.049C54.5596 129.701 55.6035 129.492 56.5778 129.109C61.6045 127.114 66.7675 125.48 72.0271 124.221C77.8473 123.047 83.8726 123.407 89.5119 125.264C92.1693 126.047 94.7492 127.072 97.2191 128.326C99.6339 129.516 101.697 131.315 103.204 133.546C104.461 135.494 105.856 137.349 107.379 139.096C109.398 141.305 111.712 141.009 113.538 138.539L114.808 136.799L116.809 137.704C119.262 138.748 120.532 138.034 120.741 135.39C120.763 134.645 120.589 133.907 120.236 133.25C119.199 131.408 117.611 129.936 115.696 129.04C114.756 128.535 113.851 127.926 112.929 127.3C113.817 127.067 114.755 127.122 115.609 127.457C119.262 129.196 122.933 130.936 126.5 132.676C129.283 134.172 132.015 133.633 133.041 130.936C133.348 129.868 133.419 128.746 133.25 127.648C133.105 126.896 132.866 126.165 132.537 125.473C132.771 125.389 133.018 125.342 133.267 125.334C135.199 125.734 135.877 124.29 135.616 122.568C135.535 121.775 135.24 121.019 134.762 120.381C134.284 119.744 133.641 119.249 132.902 118.949C130.34 117.653 127.459 117.122 124.603 117.418C124.025 117.476 123.442 117.476 122.864 117.418C121.002 117.418 119.123 117.418 117.261 117.261C116.14 117.201 115.023 117.061 113.921 116.844C113.573 116.844 113.277 116.287 112.755 115.8C113.695 115.411 114.66 115.085 115.643 114.826C116.219 114.777 116.775 114.594 117.268 114.292C117.76 113.99 118.175 113.577 118.479 113.086C118.961 112.419 119.664 111.944 120.463 111.746C122.516 111.103 124.621 110.494 126.534 112.286C127.074 112.609 127.661 112.844 128.274 112.982C130.936 114.06 133.436 115.5 135.703 117.261C136.148 117.521 136.492 117.924 136.678 118.405C136.864 118.885 136.883 119.414 136.73 119.906C136.573 120.55 136.73 121.646 137.078 121.941C137.612 122.324 138.001 122.876 138.181 123.508C138.361 124.14 138.322 124.814 138.069 125.421C137.962 125.936 137.915 126.461 137.93 126.987C137.917 127.271 137.967 127.555 138.076 127.818C138.185 128.082 138.352 128.317 138.563 128.508C138.774 128.7 139.025 128.842 139.298 128.925C139.57 129.007 139.858 129.029 140.14 128.988C140.934 128.825 141.69 128.512 142.367 128.065C143.184 127.596 143.932 126.987 144.976 126.239C144.931 126.59 144.844 126.935 144.715 127.265C143.497 129.144 142.123 130.954 141.096 132.919C140.61 134.011 140.412 135.209 140.522 136.399C140.469 136.897 140.539 137.401 140.726 137.865C140.913 138.33 141.21 138.742 141.593 139.065C141.976 139.388 142.433 139.612 142.922 139.717C143.412 139.823 143.92 139.806 144.402 139.67C145.136 139.538 145.853 139.328 146.542 139.044C146.968 138.898 147.386 138.729 147.795 138.539C147.916 139.009 147.969 139.287 148.056 139.565C148.189 140.067 148.425 140.535 148.749 140.941C149.073 141.346 149.477 141.68 149.937 141.92C150.397 142.161 150.902 142.303 151.419 142.338C151.937 142.373 152.457 142.3 152.944 142.123C154.028 141.6 154.939 140.78 155.571 139.757C156.876 137.443 158.407 135.025 158.32 132.224C158.32 131.98 158.547 131.754 158.825 131.214C159.225 132.363 159.556 133.198 159.817 134.05C160.017 134.616 160.347 135.127 160.778 135.543C161.21 135.96 161.732 136.271 162.304 136.451C163.401 136.921 163.922 136.155 164.671 135.668C165.278 135.426 165.899 135.223 166.532 135.059C167.245 134.729 168.272 134.451 168.55 133.859C168.989 133.25 169.27 132.542 169.367 131.798C169.465 131.054 169.375 130.297 169.107 129.596C168.847 128.812 168.644 128.009 168.498 127.196C168.036 124.528 167.023 121.986 165.523 119.732C163.992 117.836 162.583 115.852 160.843 113.556C162.583 113.556 163.766 113.556 165.001 113.747C166.88 113.902 168.769 113.591 170.499 112.842C171.003 112.634 171.804 112.059 171.751 111.764C171.491 110.181 172.256 108.476 171.264 106.979C170.934 106.51 170.673 106.005 170.203 105.24C171.721 105.382 173.25 105.122 174.637 104.487C176.023 103.852 177.218 102.863 178.102 101.621C177.503 105.346 176.391 108.97 174.796 112.39C174.309 113.237 173.99 114.171 173.857 115.139C173.63 117.923 174.779 119.593 177.336 119.401C177.73 119.377 178.125 119.377 178.519 119.401C178.745 119.906 178.989 120.358 179.198 120.845C179.378 121.492 179.772 122.06 180.315 122.454C180.858 122.849 181.519 123.049 182.19 123.02C182.789 122.984 183.366 122.778 183.852 122.427C184.339 122.076 184.716 121.594 184.939 121.037C185.774 118.81 186.801 116.653 187.757 114.443C189.863 114.948 189.863 114.948 191.55 113.295C191.776 113.695 191.968 114.078 192.211 114.443C194.577 117.923 196.578 118.653 200.614 117.331C202.354 116.74 202.354 116.774 203.677 118.236C204.155 118.805 204.748 119.267 205.416 119.593C206.669 120.167 207.556 119.836 207.852 118.514C208.339 116.322 208.791 114.025 207.243 112.042C206.147 110.633 204.912 109.328 203.764 107.971C203.137 107.258 202.18 106.771 202.232 105.466C202.543 105.52 202.826 105.68 203.033 105.918C205.19 108.093 207.4 110.215 209.505 112.425C210.531 113.521 211.245 114.808 212.288 115.904C213.471 117.348 214.62 118.827 215.925 120.149C216.441 120.853 217.166 121.376 217.997 121.645C218.828 121.913 219.722 121.914 220.552 121.646C221.485 121.148 222.322 120.488 223.023 119.697ZM147.777 84.049C147.777 81.3175 147.777 81.3175 146.037 78.9514C147.554 78.0286 149.337 77.6426 151.1 77.8553C152.548 77.9511 154.001 77.9511 155.45 77.8553H156.354C155.276 80.291 151.361 83.1269 147.777 84.049ZM93.235 113.086C88.6594 114.234 84.1012 115.504 79.4733 116.444C73.0119 117.776 66.6697 119.632 60.5097 121.994C59.5876 122.342 58.6481 122.585 57.7086 122.864C57.5065 122.89 57.3018 122.89 57.0997 122.864C71.1398 114.756 86.4325 110.685 102.108 107.954L102.317 108.371C101.962 108.702 101.578 108.999 101.168 109.258C99.1677 110.389 97.2887 111.346 95.3402 112.355C94.6653 112.67 93.9599 112.915 93.235 113.086ZM121.246 106.127C118.966 107.084 116.618 107.867 114.391 108.563L111.346 106.266L128.274 103.743C128.274 103.935 128.274 104.109 128.396 104.3C126.169 105.448 123.525 105.17 121.246 106.127Z" fill="white"/>
<path d="M156.041 119.314L157.781 117.575C158.912 118.184 158.025 119.123 158.199 119.575C159.695 121.141 161.087 122.463 162.304 123.942C163.209 125.073 163.053 125.438 162.026 126.361L157.798 121.785C156.615 124.308 155.728 126.569 154.545 128.744C153.362 130.919 151.935 132.641 150.578 134.624C149.465 134.05 149.447 133.546 149.952 132.746C151.031 131.006 151.988 129.266 153.188 127.23C152.519 127.411 151.839 127.55 151.152 127.648C150.822 127.648 150.23 127.509 150.196 127.317C150.142 127.119 150.135 126.91 150.174 126.709C150.214 126.507 150.298 126.316 150.422 126.152C151.241 125.629 152.089 125.152 152.962 124.725C153.936 124.203 155.502 124.516 155.676 122.829C155.78 121.785 155.902 120.637 156.041 119.314ZM154.023 135.338C153.049 135.599 152.666 136.382 152.283 137.217C153.101 136.782 153.936 136.399 154.023 135.338ZM142.036 96.3492C140.818 98.089 141.114 99.2895 142.958 100.438C143.095 99.7295 143.084 99.0006 142.925 98.2969C142.767 97.5932 142.464 96.93 142.036 96.3492ZM220.657 121.785C219.826 122.053 218.932 122.053 218.101 121.784C217.271 121.515 216.546 120.992 216.029 120.289C214.724 118.966 213.576 117.488 212.393 116.044C211.436 114.895 210.653 113.608 209.609 112.564C207.504 110.354 205.295 108.232 203.137 106.057C202.93 105.819 202.648 105.659 202.337 105.605C202.337 106.91 203.242 107.345 203.868 108.11C205.051 109.467 206.286 110.772 207.347 112.181C208.896 114.165 208.444 116.461 207.956 118.653C207.661 119.975 206.773 120.393 205.521 119.732C204.852 119.406 204.259 118.944 203.781 118.375C202.459 116.913 202.476 116.879 200.719 117.47C196.683 118.792 194.682 118.131 192.316 114.582C192.072 114.217 191.881 113.834 191.655 113.434C189.915 115.174 189.915 115.174 187.862 114.582C186.905 116.792 185.879 118.949 185.043 121.176C184.82 121.733 184.443 122.215 183.957 122.566C183.47 122.918 182.894 123.123 182.295 123.159C181.624 123.188 180.963 122.988 180.419 122.594C179.876 122.199 179.482 121.632 179.302 120.985C179.093 120.497 178.85 120.045 178.624 119.541C178.23 119.516 177.835 119.516 177.441 119.541C174.831 119.732 173.683 118.062 173.961 115.278C174.094 114.31 174.413 113.376 174.9 112.529C176.495 109.11 177.608 105.485 178.206 101.76C177.322 103.003 176.127 103.991 174.741 104.626C173.355 105.261 171.826 105.521 170.307 105.379C170.777 106.179 171.038 106.684 171.369 107.119C172.36 108.615 171.595 110.32 171.856 111.903C171.856 112.199 171.108 112.773 170.603 112.982C168.862 113.71 166.967 113.997 165.088 113.817C163.853 113.695 162.6 113.695 160.93 113.625C162.67 115.922 164.079 117.905 165.61 119.802C167.11 122.055 168.123 124.598 168.585 127.265C168.731 128.079 168.934 128.881 169.194 129.666C169.462 130.367 169.551 131.124 169.454 131.868C169.357 132.612 169.076 133.32 168.637 133.929C168.324 134.52 167.332 134.798 166.619 135.129C165.986 135.293 165.365 135.496 164.758 135.738C164.009 136.225 163.487 136.991 162.391 136.521C161.796 136.329 161.256 135.997 160.816 135.552C160.377 135.106 160.052 134.561 159.869 133.963C159.608 133.111 159.277 132.224 158.877 131.128C158.599 131.667 158.373 131.893 158.373 132.137C158.373 135.007 156.876 137.356 155.606 139.739C154.974 140.762 154.062 141.583 152.979 142.106C152.491 142.282 151.972 142.355 151.454 142.321C150.936 142.286 150.432 142.143 149.972 141.903C149.512 141.662 149.107 141.329 148.783 140.923C148.46 140.518 148.224 140.05 148.09 139.548C148.003 139.27 147.951 138.991 147.829 138.522C147.421 138.712 147.003 138.881 146.577 139.026C145.888 139.311 145.17 139.521 144.437 139.652C143.962 139.78 143.463 139.791 142.983 139.685C142.502 139.579 142.055 139.359 141.677 139.043C141.3 138.727 141.005 138.325 140.816 137.871C140.627 137.417 140.55 136.924 140.592 136.434C140.481 135.244 140.679 134.046 141.166 132.954C142.193 130.988 143.567 129.179 144.785 127.3C144.913 126.97 145.001 126.625 145.046 126.274C144.002 127.022 143.306 127.631 142.436 128.1C141.759 128.547 141.003 128.86 140.209 129.022C139.926 129.064 139.637 129.042 139.363 128.958C139.089 128.875 138.837 128.731 138.625 128.538C138.414 128.345 138.248 128.107 138.14 127.841C138.032 127.576 137.984 127.29 138 127.004C137.985 126.479 138.031 125.953 138.139 125.438C138.391 124.832 138.431 124.157 138.251 123.525C138.071 122.893 137.682 122.341 137.147 121.959C136.747 121.68 136.643 120.567 136.799 119.923C136.951 119.421 136.924 118.882 136.725 118.397C136.525 117.913 136.164 117.511 135.703 117.261C133.402 115.53 130.873 114.124 128.187 113.086C127.574 112.948 126.987 112.713 126.447 112.39C124.534 110.65 122.429 111.207 120.376 111.851C119.624 112.04 118.956 112.474 118.479 113.086C118.182 113.603 117.764 114.041 117.261 114.362C116.758 114.683 116.186 114.878 115.591 114.93C114.608 115.19 113.643 115.515 112.703 115.904C113.225 116.392 113.521 116.879 113.869 116.948C114.971 117.165 116.087 117.305 117.209 117.366C119.071 117.453 120.95 117.488 122.811 117.522C123.39 117.581 123.973 117.581 124.551 117.522C127.407 117.226 130.288 117.757 132.85 119.053C133.617 119.334 134.29 119.823 134.795 120.465C135.299 121.107 135.613 121.878 135.703 122.69C135.964 124.429 135.286 125.856 133.354 125.456C133.105 125.463 132.858 125.51 132.624 125.595C132.953 126.287 133.192 127.018 133.337 127.77C133.506 128.868 133.435 129.99 133.128 131.058C132.102 133.755 129.37 134.294 126.587 132.798C123.107 130.884 119.349 129.196 115.696 127.578C114.842 127.244 113.904 127.189 113.016 127.422C113.938 127.996 114.756 128.605 115.783 129.162C117.698 130.057 119.286 131.529 120.323 133.372C120.676 134.029 120.85 134.767 120.828 135.512C120.619 138.156 119.349 138.87 116.896 137.826L114.826 136.782L113.556 138.522C111.729 140.992 109.415 141.288 107.397 139.078C105.873 137.331 104.478 135.476 103.221 133.528C101.714 131.298 99.6513 129.499 97.2365 128.309C94.7604 127.06 92.1747 126.04 89.5119 125.264C83.8726 123.407 77.8473 123.047 72.0271 124.221C66.7733 125.481 61.6163 127.115 56.5952 129.109C55.6209 129.492 54.577 129.701 53.5853 130.049C52.5123 130.344 51.4696 130.74 50.4711 131.232C49.0047 132.014 47.6128 132.928 46.313 133.963C43.7556 136.016 41.3025 138.243 38.7972 140.366C38.2926 140.818 37.7011 141.149 37.214 141.618C36.5088 142.151 35.9173 142.82 35.4742 143.584C35.3321 143.919 35.1252 144.221 34.8654 144.475C34.6056 144.729 34.2981 144.929 33.9606 145.063C30.916 146.577 28.8282 145.185 26.2707 142.714C26.0979 142.498 25.9465 142.265 25.8184 142.019C20.0683 144.661 14.0317 146.628 7.82903 147.882C5.93157 148.38 3.92382 148.252 2.10514 147.516C1.37972 147.096 0.677027 146.637 0 146.142C1.00907 144.402 1.89636 142.819 2.76626 141.253C2.95371 140.884 3.24019 140.575 3.59359 140.36C3.94698 140.145 4.35331 140.032 4.76701 140.035C9.79498 139.896 14.4402 138.191 19.155 136.73C21.295 136.069 23.4697 135.529 25.6096 134.868C27.7496 134.207 30.1852 133.389 32.4296 132.537C34.9523 131.58 37.4402 130.501 39.9106 129.423C40.4454 129.164 40.9476 128.842 41.4069 128.466C42.901 127.22 44.4634 126.058 46.0869 124.986C49.5664 122.881 53.1852 120.845 56.8561 119.001C62.1437 116.386 67.6016 114.131 73.1927 112.251C80.378 109.798 87.8417 108.476 95.201 106.736C100.003 105.587 104.892 104.787 109.763 103.917C111.816 103.552 113.921 103.448 115.991 103.187C116.792 103.1 117.575 102.96 118.549 102.804C118.253 102.421 118.166 102.143 118.01 102.108C115.491 101.313 112.818 101.134 110.215 101.586C106.51 102.456 102.908 103.778 99.2199 104.735C97.3564 105.279 95.4189 105.526 93.4786 105.466C89.3941 105.172 85.2886 105.494 81.3001 106.423C76.3882 107.515 71.5576 108.945 66.8425 110.702C61.0885 112.852 55.5918 115.635 50.4537 119.001C49.6153 119.496 48.7499 119.943 47.8615 120.341C44.6081 122.081 41.3199 123.681 38.1013 125.438C34.8827 127.196 31.4205 129.179 28.1323 131.128C26.2185 132.276 24.4092 133.633 22.4954 134.816C21.2592 135.584 19.8049 135.925 18.356 135.787C16.9071 135.649 15.5436 135.039 14.475 134.05C14.2163 133.632 14.0282 133.173 13.9183 132.693C18.8593 130.205 22.8434 126.674 27.1754 123.629C29.8547 121.733 32.7601 120.149 35.5786 118.41C39.7518 116.184 44.098 114.299 48.5748 112.773C52.9416 111.033 57.2737 109.032 61.6579 107.31C66.7576 105.094 71.9865 103.189 77.316 101.603C80.1518 100.873 83.0225 100.281 85.8409 99.4808C87.0555 99.081 88.2001 98.494 89.2335 97.7411C89.9388 97.3037 90.5181 96.6903 90.9146 95.9613C91.3111 95.2323 91.5112 94.4127 91.4952 93.583C91.501 92.5335 91.6295 91.4884 91.878 90.4688C92.188 89.5467 92.2074 88.5517 91.9336 87.6182C91.6598 86.6848 91.106 85.8579 90.347 85.2494C89.7824 84.8049 89.326 84.2381 89.0122 83.5917C88.6985 82.9453 88.5354 82.2361 88.5354 81.5176C88.5354 80.799 88.6985 80.0898 89.0122 79.4434C89.326 78.797 89.7824 78.2302 90.347 77.7857C91.1544 77.0303 92.1808 76.5507 93.2784 76.4163C94.3759 76.2818 95.4877 76.4994 96.4536 77.0376C96.9086 76.6678 97.385 76.3251 97.8802 76.0112C98.2526 75.7952 98.6683 75.6647 99.0972 75.629C99.5262 75.5933 99.9577 75.6534 100.361 75.8049C100.763 75.9564 101.128 76.1956 101.427 76.505C101.726 76.8145 101.953 77.1866 102.091 77.5944C102.543 79.0732 102.734 80.6564 103.082 82.344C103.595 81.2859 103.891 80.1362 103.954 78.9621C104.017 77.7881 103.844 76.6133 103.448 75.5066C102.873 73.7668 102.264 72.0271 101.708 70.3743C101.415 69.7165 101.298 68.9938 101.368 68.2772C101.438 67.5605 101.693 66.8743 102.108 66.2858C102.553 65.6241 103.19 65.1155 103.934 64.8291C104.678 64.5427 105.492 64.4924 106.266 64.6852C107.15 64.7976 107.971 65.2003 108.601 65.8301C109.23 66.46 109.633 67.2812 109.746 68.1647C109.746 68.4431 109.746 68.7389 109.833 69.1042C112.407 69.4348 115.295 69.2782 115.696 72.8274C115.441 77.3445 114.066 81.7273 111.694 85.58C112.922 84.9163 114.087 84.1417 115.174 83.2661C115.731 82.7593 116.414 82.4113 117.151 82.2583C117.889 82.1053 118.654 82.1529 119.367 82.3962C119.74 82.4556 120.091 82.6104 120.386 82.8455C120.682 83.0806 120.912 83.3881 121.054 83.7381C121.195 84.0882 121.244 84.4689 121.196 84.8434C121.147 85.2179 121.002 85.5735 120.776 85.8757C120.515 86.3455 120.236 86.7978 119.715 87.6155C121.576 87.3198 122.759 86.9718 123.542 85.6844C124.36 84.5599 124.723 83.168 124.559 81.7872C124.394 80.4065 123.714 79.1388 122.655 78.2381C121.967 77.5565 121.151 77.0184 120.254 76.6549C118.286 75.9747 116.642 74.5852 115.643 72.7578C116.826 71.4355 116.339 69.7305 116.6 68.1995C116.6 67.956 116.2 67.5906 115.922 67.3644C115.278 66.8425 114.565 66.425 113.921 65.903C113.269 65.4448 112.794 64.7767 112.576 64.0103C112.357 63.244 112.408 62.4259 112.721 61.6927C112.956 61.0098 113.421 60.4298 114.037 60.0521C114.653 59.6744 115.38 59.5225 116.096 59.6224C118.323 59.779 120.55 60.0921 122.811 60.3357C122.811 60.2139 122.811 59.9008 122.655 59.8486C119.436 58.4567 116.218 57.0823 112.982 55.7601C112.367 55.4747 111.693 55.3376 111.016 55.3599C109.271 55.4535 107.547 54.9503 106.127 53.9333C103.308 52.1935 103.152 49.2881 105.692 47.0786C106.301 46.5392 106.945 46.0347 107.571 45.5127C107.436 44.9698 107.343 44.4172 107.292 43.86C107.173 43.0041 107.309 42.1319 107.685 41.3538C108.061 40.5757 108.66 39.9267 109.405 39.489C110.15 39.0512 111.008 38.8444 111.871 38.8946C112.734 38.9449 113.562 39.2501 114.252 39.7715C115.226 40.3728 116.162 41.0353 117.053 41.7548C117.905 42.4507 118.792 43.1814 120.062 44.3123C119.477 43.1916 119.319 41.8967 119.616 40.6679C119.914 39.4392 120.647 38.3603 121.68 37.6315C123.055 36.6225 124.221 37.3184 125.282 38.1013C128.883 36.4833 129.823 36.8312 131.11 40.9719C132.398 45.1126 133.528 49.1315 134.746 53.2722C134.746 53.2722 134.938 53.4114 135.059 53.4114C137.652 53.4114 139.444 52.6285 139.913 49.6186C140.14 48.1398 141.201 48.0528 142.749 48.6966C143.547 48.9772 144.268 49.4391 144.857 50.0459C145.446 50.6527 145.886 51.3879 146.142 52.1935C146.426 49.8533 146.201 47.4792 145.481 45.2344C144.937 43.4166 145.117 41.4588 145.985 39.7715C146.612 38.5014 147.447 37.3706 148.978 37.4402C150.509 37.5097 152.457 37.6141 153.484 39.4061C153.656 39.8179 153.854 40.2188 154.075 40.6066C154.632 41.3721 155.293 41.7374 156.146 40.9719C156.372 40.7631 156.65 40.624 156.859 40.4326C157.298 40.0146 157.867 39.7592 158.471 39.7086C159.076 39.658 159.679 39.8152 160.182 40.1542C160.746 40.4015 161.212 40.8302 161.505 41.3723C161.798 41.9144 161.902 42.5389 161.8 43.1466C161.396 45.1208 160.814 47.0542 160.06 48.9227C158.807 52.0543 157.329 55.099 155.989 58.1784C155.797 58.7908 155.663 59.4199 155.589 60.0573C155.993 59.8083 156.342 59.4792 156.614 59.0902C156.887 58.7013 157.076 58.2607 157.172 57.7956C157.624 56.6358 158.094 55.4759 158.581 54.3161C158.932 53.5645 159.452 52.9047 160.102 52.3884C160.751 51.8722 161.511 51.5136 162.322 51.341C163.16 51.284 164.002 51.3723 164.81 51.602C165.581 49.9747 165.934 48.1807 165.836 46.3826C165.766 45.5802 165.92 44.7739 166.282 44.0544C166.645 43.3349 167.2 42.7306 167.887 42.3095C168.574 41.8884 169.364 41.6672 170.17 41.6706C170.976 41.674 171.764 41.902 172.447 42.3289C172.987 41.546 173.561 40.7979 174.083 39.9976C174.953 38.6754 176.536 37.6141 177.336 38.0143C177.874 38.3565 178.316 38.8299 178.62 39.3899C178.924 39.9499 179.081 40.5781 179.076 41.2155C179.077 42.2624 178.966 43.3064 178.745 44.3297C178.745 45.043 178.502 45.7737 178.31 46.9046C179.785 46.1005 180.948 44.8268 181.616 43.2858C182.573 40.6588 184.539 38.7798 185.965 36.5181C186.059 36.3463 186.134 36.1656 186.192 35.9787C184.44 34.053 182.215 32.6194 179.737 31.8207C177.075 30.8464 174.274 30.22 171.647 29.1588C169.991 28.5029 168.469 27.5474 167.158 26.3403C164.81 24.0612 165.088 22.1301 167.68 20.1293C167.959 19.9205 168.272 19.7292 168.62 19.503C168.481 19.1202 168.463 18.7549 168.272 18.5983C167.728 18.0708 167.377 17.3756 167.276 16.6244C167.175 15.8733 167.33 15.1101 167.715 14.4576C167.835 13.933 168.074 13.4433 168.415 13.0269C168.756 12.6106 169.189 12.279 169.679 12.0581C170.17 11.8372 170.705 11.7331 171.243 11.754C171.78 11.7749 172.306 11.9202 172.778 12.1785C174.413 12.9788 176.258 13.4485 177.214 15.4145C177.528 16.0756 178.641 16.354 179.389 16.7889L179.772 16.5105C179.53 15.978 179.244 15.466 178.919 14.9795C177.475 13.2398 175.962 11.3956 174.553 9.55141C174.091 8.94028 173.796 8.22011 173.695 7.46098C173.594 6.70184 173.692 5.92959 173.978 5.21935C174.066 4.79189 174.259 4.39301 174.539 4.05875C174.82 3.72449 175.179 3.46537 175.585 3.30479C175.991 3.14422 176.43 3.08724 176.864 3.13902C177.297 3.1908 177.71 3.34969 178.067 3.60135C178.937 4.0363 179.807 4.50604 180.624 4.94099C180.624 4.94099 180.781 4.94099 180.972 4.94099C181.217 4.7047 181.428 4.43533 181.599 4.14069C181.799 3.45124 182.23 2.85108 182.818 2.43973C183.407 2.02837 184.118 1.83052 184.835 1.87897C185.513 1.89931 186.175 2.09819 186.752 2.45556C187.329 2.81292 187.802 3.31615 188.123 3.91451C189.488 5.71205 190.379 7.8239 190.715 10.056C191.051 11.6396 191.565 13.1803 192.246 14.649C192.44 13.4463 192.797 12.2756 193.307 11.1694C193.527 10.7464 193.869 10.3994 194.288 10.1739C194.708 9.94846 195.186 9.85498 195.66 9.90575C196.134 9.95651 196.581 10.1491 196.944 10.4584C197.306 10.7677 197.567 11.1793 197.692 11.6392C197.94 12.1022 198.091 12.6111 198.136 13.1346C198.181 13.6581 198.118 14.1852 197.953 14.6838C197.857 15.1119 197.816 15.5503 197.831 15.9886C198.039 16.121 198.268 16.2153 198.509 16.267C200.841 16.267 201.345 16.5975 201.38 18.8941C201.415 21.1906 201.136 23.3653 200.98 25.6096C200.958 25.91 200.842 26.1959 200.649 26.4273C198.475 28.1671 198.909 31.0377 197.866 33.2473C197.709 33.5604 198.005 34.2737 198.318 34.6217C199.038 35.3154 199.793 35.9716 200.58 36.5877C202.095 35.2554 203.026 33.3808 203.172 31.3683C203.311 29.5067 203.572 27.6452 203.868 25.801C204.184 22.5221 204.055 19.2156 203.485 15.9712C203.485 15.4667 202.859 15.0143 202.476 14.5968C201.847 13.9931 201.468 13.1755 201.413 12.3057C201.359 11.4358 201.632 10.5771 202.18 9.89937C202.426 9.51532 202.789 9.22121 203.215 9.06121C203.642 8.90122 204.109 8.88398 204.546 9.01208C204.78 9.14063 205.043 9.20867 205.309 9.21C205.576 9.21133 205.839 9.14591 206.074 9.0197C206.31 8.89348 206.509 8.71048 206.656 8.48734C206.802 8.26419 206.89 8.00799 206.912 7.74204C207.198 6.72431 207.711 5.7849 208.413 4.9951C209.116 4.20531 209.989 3.58587 210.966 3.1838C211.382 2.89007 211.865 2.70484 212.371 2.64489C212.877 2.58494 213.39 2.65217 213.863 2.84048C214.337 3.02879 214.756 3.33224 215.082 3.72332C215.409 4.11441 215.632 4.58078 215.733 5.08017C215.972 6.48175 216.054 7.90556 215.977 9.32524C215.977 11.413 215.82 13.5181 215.803 15.6059C215.843 16.3225 215.954 17.0334 216.133 17.7284L216.62 17.8676C217.021 17.4013 217.371 16.894 217.664 16.354C218.726 13.7965 219.804 11.2564 220.692 8.64673C221.201 7.00044 221.562 5.31193 221.77 3.60135C222.153 0.974279 224.015 0.121785 226.45 0C227.548 0.0688573 228.583 0.533577 229.364 1.30788C230.144 2.08219 230.617 3.11347 230.695 4.21028C230.695 4.64522 230.695 5.08017 230.835 5.82828C231.652 5.6021 232.348 5.44552 233.027 5.23675C233.601 5.06887 234.207 5.03737 234.795 5.14474C235.384 5.25211 235.939 5.49539 236.418 5.85523C236.896 6.21507 237.283 6.68153 237.549 7.21749C237.815 7.75345 237.953 8.34412 237.95 8.94249C237.932 10.1756 237.639 11.389 237.091 12.4939C236.543 13.5987 235.755 14.5669 234.784 15.3275C232.261 17.7806 229.738 20.2337 227.251 22.7216C226.849 23.2675 226.499 23.85 226.207 24.4614C227.459 24.1308 228.207 23.9046 228.973 23.7481C230.194 23.4167 231.439 23.1783 232.696 23.0347C233.757 22.9478 234.436 23.4871 234.61 24.7745C234.94 26.6535 235.097 28.3585 233.079 29.6111C233.531 29.9765 233.775 30.2374 234.071 30.4288C234.634 30.7936 235.089 31.3024 235.389 31.9026C235.689 32.5027 235.823 33.1722 235.777 33.8416C235.731 34.511 235.506 35.1558 235.126 35.709C234.747 36.2623 234.226 36.7038 233.618 36.9878C231.591 37.9894 229.385 38.5806 227.129 38.7276L213.924 39.5279C213.106 39.5279 212.288 39.8063 211.471 39.8063C210.15 39.8372 208.863 40.2363 207.757 40.9586C206.65 41.681 205.767 42.6978 205.208 43.8947C203.443 46.5678 201.055 48.7712 198.248 50.3146C196.824 51.0193 195.642 52.1342 194.856 53.5158L197.605 55.5339C197.617 56.3096 197.553 57.0846 197.413 57.8478C197.135 58.9091 196.996 60.0747 195.673 60.4401C195.273 60.5445 195.03 61.2578 194.403 62.1799C196.735 61.7797 198.283 62.1799 199.275 64.111L204.129 62.3713C204.6 62.2144 205.016 61.9236 205.325 61.5343C205.634 61.145 205.823 60.6741 205.869 60.1791C206.947 54.5248 209.627 49.4273 211.68 44.1383C212.162 43.1257 212.835 42.2159 213.663 41.4591C214.95 40.1194 215.733 40.2064 216.951 41.6504L217.49 42.2767C219.056 41.2329 220.744 40.2238 222.431 41.9288C223.562 43.0771 223.423 44.5037 222.518 46.1565C224.607 45.6185 226.574 44.6854 228.312 43.4076C230.527 41.8673 233.147 41.014 235.845 40.9545C236.071 40.9545 236.297 40.9545 236.506 40.9545C239.986 41.0415 240.543 41.546 240.943 45.2344C241.49 45.609 242.073 45.9295 242.682 46.1913C243.618 46.4967 244.43 47.0942 245 47.8961C245.57 48.6979 245.868 49.6615 245.849 50.6451C245.844 51.7518 245.454 52.8224 244.746 53.6731C244.038 54.5238 243.057 55.1017 241.969 55.3077C240.142 55.692 238.285 55.919 236.419 55.9862C233.65 55.9322 230.884 56.2303 228.19 56.8735C227.111 57.1962 226.072 57.6398 225.093 58.1958C225.433 58.5182 225.849 58.7506 226.301 58.8721C226.754 58.9936 227.23 59.0004 227.686 58.8917C228.598 58.6433 229.566 58.6952 230.446 59.0399C231.327 59.3846 232.073 60.0037 232.574 60.8055C233.583 62.3713 233.549 62.9628 231.948 63.7631C231.436 63.9755 230.913 64.1614 230.382 64.3198L230.713 65.4333C231.652 68.6693 229.791 71.0876 226.45 70.6526C224.224 70.3209 222.016 69.8679 219.839 69.2956C216.221 68.3124 212.515 67.6889 208.774 67.434C207.799 67.2666 206.797 67.3374 205.855 67.6403C204.913 67.9433 204.058 68.4693 203.363 69.1738C204.198 70.0089 205.103 69.574 206.06 69.487C208.061 69.2782 210.062 69.0868 212.062 68.965C212.585 68.9456 213.104 69.0531 213.576 69.2782C214.916 69.8697 215.664 71.4703 213.959 72.6012C213.593 72.8622 213.211 73.0709 212.863 73.2797C212.833 73.4466 212.833 73.6174 212.863 73.7842C213.698 76.6375 211.958 78.3425 208.583 77.8727C207.226 77.5217 205.795 77.5884 204.477 78.0641C204.905 78.4334 205.408 78.7056 205.952 78.8618C206.496 79.0179 207.067 79.0545 207.626 78.9688C209.94 79.0906 212.271 78.9688 214.585 79.1428C215.818 79.3701 216.998 79.8243 218.065 80.4824C219.369 81.1783 220.57 82.083 221.718 82.8485C225.33 80.9464 228.695 78.6093 231.739 75.8894C235.219 73.1753 238.524 70.2177 242.856 68.8085C243.35 68.5617 243.889 68.422 244.44 68.3984C244.991 68.3748 245.541 68.4679 246.054 68.6716C246.566 68.8753 247.03 69.1849 247.414 69.5803C247.799 69.9757 248.095 70.4478 248.285 70.9658C248.753 70.8271 249.229 70.7167 249.711 70.6352C250.956 70.4621 252.213 70.3923 253.469 70.4265C255.209 70.583 255.679 71.2094 255.992 72.7926C256.145 73.3768 256.084 73.9966 255.819 74.5393C255.554 75.082 255.103 75.5117 254.548 75.7502C252.582 77.0028 250.598 78.2207 248.633 79.4559C252.17 79.6814 255.722 79.3527 259.158 78.4817C264.022 77.4073 269.086 77.6779 273.807 79.2646C274.607 79.5603 275.373 79.8909 275.547 80.8652C275.551 81.3215 275.42 81.7688 275.169 82.1499C274.918 82.5311 274.559 82.8288 274.138 83.0051C273.25 83.5444 272.294 83.962 271.111 84.5535C271.667 85.319 272.102 85.9801 272.607 86.5891C274.103 88.3288 274.347 89.8076 273.546 91.2691C273.119 92.159 272.397 92.8738 271.503 93.2923C270.609 93.7108 269.597 93.8074 268.64 93.5656C264.569 92.6087 260.533 91.443 256.462 90.3992C253.591 89.6859 250.72 89.0595 247.763 88.381L247.606 88.8334L250.598 89.9816C251.721 90.3034 252.744 90.9023 253.574 91.7232C254.404 92.5441 255.014 93.5605 255.348 94.679C256.218 97.4975 254.757 99.1155 251.869 98.4544C251.016 98.263 250.129 97.915 249.294 97.6193C249.067 98.2108 248.911 98.6979 248.685 99.1677C248.514 99.7301 248.207 100.242 247.792 100.658C247.377 101.074 246.866 101.381 246.304 101.553C245.742 101.725 245.146 101.756 244.569 101.643C243.992 101.531 243.452 101.278 242.996 100.907C241.186 99.8553 239.443 98.6933 237.776 97.4279C235.661 95.8969 233.311 94.7215 230.817 93.9483C229.182 93.4264 227.651 92.6261 226.033 92.0346C223.875 91.2343 221.683 90.521 218.987 89.5989C219.665 90.8863 220.152 91.6692 220.518 92.4869C221.492 94.6442 221.057 95.8621 218.778 96.7842C217.598 97.2728 216.357 97.6005 215.089 97.7585C213.611 97.9324 212.097 97.8628 210.601 97.915C210.168 98.0018 209.743 98.124 209.331 98.2804C214.026 99.5189 218.571 101.269 222.884 103.5C225.763 104.834 228.136 107.061 229.651 109.85C230.09 110.798 230.304 111.833 230.278 112.877C230.278 113.921 229.234 114.617 227.773 114.617C226.442 114.527 225.118 114.364 223.806 114.13C223.61 115.204 223.499 116.292 223.475 117.383C223.475 118.218 223.649 119.123 222.971 119.68C222.33 120.512 221.546 121.225 220.657 121.785ZM31.1943 141.932C31.848 142.05 32.52 142.017 33.1592 141.836C33.7983 141.655 34.3878 141.331 34.8827 140.888L42.9205 134.277C39.7193 134.59 33.2647 138.957 31.1943 141.932ZM222.936 84.4143C221.927 85.0928 221.405 85.7192 221.683 86.9892C222.832 87.4067 223.962 87.8243 225.163 88.2071C230.396 89.8267 235.396 92.1192 240.038 95.027C241.395 95.9665 242.735 96.9234 244.161 97.7237C245.901 98.7153 246.371 98.4892 247.136 96.6102C247.745 95.1488 248.232 94.8704 249.729 95.288C250.303 95.4446 250.825 95.7925 251.468 95.8969C252.112 96.0013 252.982 96.0709 253.904 96.1753C253.884 95.3271 253.62 94.5026 253.145 93.7996C252.67 93.0965 252.004 92.5443 251.225 92.2086C249.972 91.6866 248.754 91.1125 247.519 90.608C247.049 90.5105 246.609 90.3026 246.235 90.0015C245.861 89.7004 245.564 89.3147 245.369 88.8762C245.173 88.4377 245.085 87.9591 245.111 87.4797C245.137 87.0004 245.277 86.5341 245.518 86.1193C246.58 86.2411 247.763 86.3107 248.893 86.5369C250.024 86.763 251.521 87.1806 252.825 87.5285C256.496 88.5028 260.167 89.5293 263.873 90.4514C265.613 90.8863 267.544 91.1125 269.371 91.443C270.397 91.6344 270.85 90.8863 271.371 90.2426C271.893 89.5989 271.667 88.8682 271.128 88.2418C270.589 87.6155 270.014 86.8326 269.51 86.0845C269.22 85.7869 269.012 85.4191 268.907 85.0171C268.802 84.6151 268.803 84.1927 268.91 83.7912C269.017 83.3897 269.226 83.0228 269.517 82.7265C269.808 82.4301 270.172 82.2144 270.571 82.1004L272.555 81.0565C271.919 80.7128 271.248 80.4386 270.554 80.2388C266.999 79.6942 263.385 79.6532 259.819 80.1171C257.679 80.378 255.539 80.813 253.4 81.0391C251.26 81.2653 249.52 81.2653 247.571 81.3523C247.099 81.437 246.611 81.3504 246.197 81.1081C245.782 80.8657 245.468 80.4835 245.31 80.0301C244.927 78.847 245.971 78.4991 246.719 78.0467C248.633 76.8811 250.581 75.7328 252.477 74.5671C252.967 74.3524 253.362 73.9688 253.592 73.4866C253.822 73.0043 253.871 72.4554 253.73 71.9401C252.721 72.0271 251.764 72.0445 250.859 72.201C249.955 72.3576 249.276 72.7404 248.476 72.897C248.043 73.0406 247.572 73.0187 247.155 72.8356C246.737 72.6524 246.402 72.321 246.214 71.9053C245.257 70.0785 245.24 70.1655 243.378 70.6526C239.255 71.8183 236.419 74.8281 232.94 77.2464C229.46 79.6647 226.328 82.1004 222.936 84.4143ZM207.034 62.5278C206.425 63.2933 205.19 63.5717 204.233 64.0415C203.109 64.6396 201.947 65.1626 200.754 65.6073C199.244 66.0768 197.89 66.9489 196.839 68.1299C196.283 68.9036 195.615 69.5897 194.856 70.1655C191.254 72.3054 187.601 74.3584 183.982 76.4461C183.735 76.606 183.503 76.7864 183.286 76.9854C184.527 76.6913 185.725 76.2411 186.853 75.6458C187.768 75.0468 188.805 74.6608 189.889 74.5163C190.973 74.3717 192.076 74.4724 193.116 74.8107C193.584 75.0022 194.109 75.0022 194.577 74.8107C197.761 73.0709 201.276 73.2797 204.668 72.8796C205.347 72.8796 206.043 72.7578 206.408 74.0278C202.65 75.1587 198.353 74.3062 195.343 76.5505C195.117 78.1685 194.943 79.3689 194.769 80.552L199.988 81.4567C201.885 81.5245 203.7 82.2503 205.121 83.5096C203.189 84.1012 201.641 83.2661 200.11 83.1443C198.579 83.0225 196.735 82.7615 195.239 82.5701C194.734 83.5444 194.403 84.3099 193.969 84.9537C192.733 86.8152 190.715 86.9892 188.749 87.1632C187.275 87.2498 185.829 87.6096 184.487 88.2244C185.043 89.4423 185.043 89.5293 185.757 89.5119C188.906 89.5119 192.09 89.7207 195.065 88.3636C195.625 88.0109 196.206 87.6914 196.804 87.4068C199.153 86.6412 201.484 85.8061 203.885 85.2668C206.213 84.7268 208.581 84.3834 210.966 84.2403C212.153 84.2066 213.32 84.5484 214.301 85.217C215.282 85.8855 216.027 86.8467 216.429 87.9635C216.979 87.8772 217.516 87.7254 218.03 87.5111C219.543 86.676 220.117 84.2403 218.934 83.3704C217.506 82.0373 215.664 81.233 213.715 81.0913C211.488 81.0913 209.261 81.0913 207.034 80.9695C206.097 81.0847 205.146 80.9257 204.297 80.512C203.448 80.0983 202.737 79.4475 202.25 78.6382C201.484 77.2116 201.745 76.4809 203.259 75.8546C204.913 75.34 206.677 75.2918 208.357 75.7154C208.814 75.8467 209.298 75.8548 209.759 75.7387C210.22 75.6226 210.643 75.3864 210.984 75.0543C210.653 74.08 210.34 73.1927 210.009 72.2706L211.575 70.931C211.296 70.8154 211.004 70.7337 210.705 70.6874C206.634 71.2094 202.58 71.7487 198.527 72.2532C197.431 72.3924 196.248 72.5838 195.708 71.0354C196.235 70.7796 196.732 70.4644 197.187 70.0959C199.507 67.5595 202.539 65.7827 205.886 64.9983C209.227 64.4843 212.642 64.7341 215.872 65.729C219.213 66.5467 222.588 67.2079 225.928 68.0256C227.285 68.3561 228.051 67.9038 228.364 67.1035C228.109 65.8927 227.935 64.6664 227.842 63.4325C227.842 62.0233 229.582 62.3887 230.539 61.2404C229.373 61.0316 228.538 60.8402 227.686 60.7533C226.833 60.6663 225.58 60.7533 224.571 60.5097C223.562 60.2661 222.188 59.257 222.188 58.4045C222.188 57.1867 222.971 56.5604 223.928 56.0558C225.951 55.0754 228.14 54.4852 230.382 54.3161C233.27 54.0029 236.193 53.8463 239.081 53.6897C239.834 53.6667 240.574 53.4932 241.258 53.1794C241.942 52.8657 242.557 52.4181 243.065 51.863C243.953 50.9409 244.074 50.2972 243.291 49.3055C242.758 48.6879 242.13 48.1593 241.43 47.7397C240.828 47.4255 240.206 47.1523 239.568 46.922C239.334 46.849 239.116 46.7299 238.928 46.5716C238.74 46.4133 238.586 46.2191 238.474 46.0003C238.362 45.7815 238.295 45.5425 238.277 45.2975C238.259 45.0524 238.289 44.8062 238.368 44.5733C238.428 44.2163 238.469 43.8561 238.49 43.4946C236.958 42.9586 235.308 42.8563 233.723 43.1988C230.685 43.8929 227.812 45.1755 225.267 46.9742C224.237 47.5785 223.147 48.0741 222.014 48.453C221.716 48.615 221.366 48.6529 221.04 48.5585C220.714 48.464 220.439 48.2448 220.274 47.9484C219.999 47.2892 219.903 46.569 219.996 45.8607C219.996 45.4084 220.657 45.043 220.831 44.5733C220.953 44.1081 221.006 43.6273 220.987 43.1466C220.446 43.0607 219.894 43.0607 219.352 43.1466C218.882 43.2858 218.552 43.8078 218.117 44.0861C216.76 44.9734 216.464 44.9038 215.403 43.5642C215.281 43.4076 215.055 43.3554 214.742 43.1988C214.253 43.7696 213.821 44.3873 213.454 45.043C212.393 47.3569 211.349 49.6708 210.444 52.0021C209.54 54.3335 208.704 57.0823 207.835 59.6398C207.487 60.5271 207.608 61.7971 207.034 62.5278ZM194.351 55.9688C194.247 55.9688 194.125 56.108 193.882 56.2646C194.229 56.6822 194.577 57.0997 195.082 57.6738C195.673 56.4734 195.169 56.1254 194.334 55.9688H194.351ZM184.121 61.4318C181.825 64.4764 179.685 67.6254 177.388 70.67C176.803 71.4443 176.07 72.0948 175.231 72.5838C174.674 72.812 174.049 72.812 173.491 72.5838C173.126 72.4098 172.917 71.6095 172.917 71.0876C172.935 70.4178 173.095 69.7594 173.387 69.1564C174.118 67.6254 174.935 66.1292 175.77 64.5634C175.457 63.9023 175.127 63.2064 174.831 62.5452C174.155 63.0639 173.439 63.5292 172.691 63.9371C171.769 64.372 171.23 63.5021 170.534 63.1194C170.119 62.8837 169.661 62.7358 169.187 62.6847C168.713 62.6336 168.233 62.6805 167.778 62.8224C167.323 62.9643 166.902 63.1983 166.541 63.5098C166.18 63.8212 165.887 64.2035 165.68 64.633C165.308 65.3691 164.833 66.0486 164.27 66.6511C163.92 66.984 163.667 67.4061 163.538 67.872C163.409 68.3379 163.41 68.83 163.54 69.2956C163.971 71.9777 163.513 74.7274 162.235 77.1246C160.358 80.8539 157.193 83.7772 153.327 85.3538C151.602 86.0907 149.814 86.6729 147.986 87.0936C146.472 87.4415 144.889 87.372 143.358 87.6329C142.513 87.9279 141.706 88.3252 140.957 88.816C141.529 88.9523 142.111 89.0396 142.697 89.0769C144.767 88.816 146.855 88.5724 148.908 88.1723C150.491 87.8591 152.022 87.1458 153.606 86.9196C155.537 86.6238 157.52 86.7108 158.547 84.6057C158.633 84.4491 158.947 84.4143 159.138 84.2925C161.261 82.9529 163.418 81.6307 165.506 80.2388C165.909 79.9306 166.197 79.4955 166.323 79.0036C167.367 75.4958 168.027 71.8848 168.289 68.2343C168.289 68.0778 168.568 67.9386 168.742 67.7646C168.968 67.8864 169.281 67.9386 169.316 68.0777C170.273 71.4703 168.95 74.6715 168.411 78.1511C171.513 77.1665 174.4 75.602 176.919 73.5407C180.224 70.4787 184.034 67.9734 186.644 64.1806C186.902 63.8764 187.187 63.5968 187.497 63.3455C187.775 63.5195 187.984 63.5717 188.018 63.6587C188.158 64.1458 188.262 64.6504 188.366 65.1201C190.385 65.6247 190.385 65.6246 190.419 66.9991L189.115 66.8773C188.595 66.8079 188.072 66.773 187.549 66.7729C187.266 66.7657 186.984 66.8162 186.721 66.9212C186.459 67.0262 186.22 67.1836 186.02 67.3837C185.819 67.5839 185.662 67.8227 185.557 68.0855C185.452 68.3484 185.402 68.6299 185.409 68.9128C185.536 69.4612 185.753 69.9845 186.052 70.4613L184.504 70.9136C183.784 71.006 183.084 71.2177 182.434 71.5399C180.572 72.9143 178.85 74.4628 177.006 75.872C176.042 76.5836 175.03 77.2288 173.978 77.8031C172.917 78.4295 171.821 79.0036 170.725 79.5429C171.966 79.9818 173.258 80.2567 174.57 80.3606C175.753 80.5172 176.919 80.7956 178.049 81.0217C178.838 81.217 179.641 81.345 180.45 81.4045C182.469 81.4045 184.487 81.2827 186.505 81.4045C186.737 81.4477 186.953 81.5507 187.133 81.7033C187.313 81.8558 187.451 82.0527 187.531 82.2744C187.531 82.9703 187.114 83.3009 186.366 83.2313C184.869 83.0921 183.391 82.9703 181.894 82.8659L177.632 82.6397C175.161 82.518 172.708 82.344 170.238 82.3266C169.107 82.3266 167.941 83.1095 166.897 81.996C166.758 81.8568 166.115 81.996 165.871 82.1874C164.462 83.3183 163.122 84.5187 161.487 85.9279C166.115 85.9279 170.342 85.9279 174.57 85.9279C177.197 85.9279 179.789 85.9279 182.434 85.6496C185.078 85.3712 187.653 84.9363 190.332 84.5535C190.774 84.5427 191.204 84.4015 191.566 84.1477C191.928 83.8939 192.207 83.5388 192.368 83.1269L191.063 80.6738C191.55 80.2736 191.898 80.0127 192.211 79.7169C192.536 79.5207 192.775 79.2098 192.881 78.8458C192.988 78.4817 192.953 78.091 192.785 77.7509C192.627 77.4046 192.358 77.12 192.022 76.9408C191.686 76.7617 191.3 76.6979 190.924 76.7593C190.038 76.8913 189.172 77.1369 188.349 77.49C186.4 78.2729 184.452 79.0906 182.556 79.9953C182.124 80.2268 181.623 80.2962 181.144 80.1909C180.666 80.0856 180.241 79.8126 179.946 79.4211C179.761 79.2504 179.616 79.0416 179.519 78.8092C179.423 78.5767 179.378 78.3262 179.388 78.0748C179.398 77.8235 179.462 77.5772 179.577 77.3531C179.691 77.129 179.853 76.9323 180.05 76.7767C180.965 75.8987 181.968 75.1174 183.043 74.4454C184.174 73.732 185.444 73.2275 186.522 72.549C188.784 71.2268 191.046 69.9219 193.22 68.4779C194.693 67.5973 195.822 66.2412 196.422 64.633C192.942 64.633 192.072 63.5195 192.785 60.4749V60.2661C193.412 57.7086 192.368 56.6126 189.863 57.2911C187.537 57.9937 185.511 59.4505 184.104 61.4318H184.121ZM165.366 97.5323C166.189 97.7498 166.947 98.1599 167.579 98.7287C168.212 99.2974 168.7 100.008 169.003 100.803L170.186 97.1843C167.646 95.8447 166.323 94.5921 169.246 91.965C169.977 91.3213 170.986 90.8515 171.125 89.6511C166.567 88.1201 153.727 89.2683 146.96 91.7736C146.96 92.6609 147.099 93.3916 148.351 93.2002C149.023 93.1391 149.698 93.1391 150.37 93.2002C151.046 93.1258 151.729 93.2654 152.322 93.5993C152.915 93.9333 153.388 94.4448 153.675 95.0618C153.849 95.7823 153.795 96.539 153.521 97.2276C153.246 97.9162 152.766 98.5028 152.144 98.9067L146.472 102.821L146.577 103.326C147.06 103.446 147.56 103.481 148.056 103.43C151.268 102.781 154.342 101.574 157.137 99.8636C158.308 99.2119 159.516 98.631 160.756 98.1238C162.18 97.4041 163.807 97.1952 165.366 97.5323ZM140.557 89.912L140.331 89.5641L134.242 91.704L135.547 93.7396L140.557 89.912ZM151.953 75.7328C154.091 76.3259 156.342 76.3916 158.512 75.9242C157.489 75.4461 156.38 75.1825 155.252 75.1496C154.124 75.1167 153.001 75.3152 151.953 75.7328ZM159.573 73.993C159.573 72.8448 159.695 71.9749 159.782 70.6526L155.885 73.0709L155.989 73.4711L159.573 73.993ZM145.968 78.9514C147.847 81.3175 147.847 81.3175 147.708 84.049C151.292 83.1269 155.206 80.291 156.215 77.9423H155.311C153.862 78.0381 152.409 78.0381 150.961 77.9423C149.231 77.7193 147.476 78.0741 145.968 78.9514ZM178.015 63.0498C177.901 63.1389 177.81 63.2525 177.746 63.382C177.683 63.5116 177.65 63.6537 177.649 63.7979C177.823 65.7116 176.501 66.9469 175.666 68.4083C175.529 68.7308 175.435 69.0701 175.388 69.4174L175.718 69.5914L181.686 61.4492L181.338 61.1012C180.224 61.7101 179.093 62.3539 178.015 63.0498ZM190.993 53.133C190.193 53.7071 189.254 53.9507 189.515 55.0294C191.376 54.751 191.376 54.751 190.993 53.133ZM183.53 55.3425C181.146 57.2389 179.128 58.8221 177.127 60.4749C177.006 60.5793 177.006 60.875 176.901 61.2926C178.918 60.4322 180.785 59.2578 182.434 57.813C182.956 57.4129 183.06 56.4386 183.53 55.3425ZM204.407 35.9439C202.963 37.9447 201.31 39.7889 199.814 41.7548C198.909 42.9727 198.074 44.2601 197.257 45.5127H197.152C196.178 45.043 195.5 45.6345 194.821 46.2261C194.142 46.8176 193.36 47.2873 192.577 46.3131C192.716 45.6519 192.872 45.0256 193.012 44.3993L192.577 44.2079C190.89 47.2685 188.634 49.9789 185.931 52.1935C185.327 52.8995 184.786 53.6562 184.313 54.4552C184.434 54.577 184.539 54.6988 184.661 54.8032C186.481 54.0453 188.199 53.0635 189.776 51.8804C191.515 50.6277 193.255 49.3577 194.995 48.1398C195.969 47.4787 196.926 46.835 197.065 45.5301V45.4432C197.682 45.1685 198.266 44.8241 198.805 44.4167C201.119 42.4159 203.311 40.276 205.642 38.31C206.421 37.6232 207.371 37.1602 208.391 36.9704C210.701 36.5801 213.045 36.4343 215.385 36.5355C220.246 36.6593 225.108 36.2921 229.895 35.4394C230.773 35.3318 231.602 34.9747 232.284 34.4104C232.965 33.8461 233.47 33.0983 233.74 32.2556C233.114 31.9076 232.557 31.6989 232.087 31.3683C231.746 31.2229 231.453 30.9857 231.239 30.6831C231.025 30.3805 230.899 30.0245 230.876 29.6547C230.852 29.2849 230.932 28.9158 231.106 28.5887C231.28 28.2615 231.541 27.9891 231.861 27.8017C232.066 27.6713 232.241 27.4996 232.375 27.2974C232.51 27.0953 232.6 26.8673 232.641 26.628C232.682 26.3888 232.672 26.1437 232.613 25.9083C232.554 25.673 232.446 25.4527 232.296 25.2617C231.113 25.54 229.912 25.8532 228.677 26.1316C228.03 26.3057 227.374 26.4451 226.711 26.5491C226.285 26.6481 225.84 26.6205 225.429 26.4697C225.019 26.3189 224.662 26.0516 224.401 25.7005C224.141 25.3494 223.988 24.9298 223.963 24.4933C223.937 24.0569 224.04 23.6225 224.258 23.2435C224.755 22.1567 225.425 21.1578 226.241 20.2859C227.633 18.8419 229.269 17.624 230.713 16.2148C232.218 14.7763 233.641 13.2545 234.975 11.6566C235.516 10.9467 235.837 10.0938 235.897 9.20346C235.958 8.86783 235.936 8.52239 235.832 8.19738C235.729 7.87236 235.547 7.57766 235.303 7.33905C235.06 7.10044 234.761 6.92519 234.434 6.82864C234.107 6.73208 233.761 6.71715 233.427 6.78516C232.757 6.86822 232.094 7.00199 231.443 7.18531C229.617 7.53326 229.147 7.18531 228.729 5.30634C228.549 4.51112 228.274 3.7402 227.912 3.00983C227.722 2.69993 227.425 2.47078 227.077 2.36611C226.379 2.29937 225.679 2.46204 225.082 2.82942C224.486 3.1968 224.025 3.74881 223.771 4.40165C223.284 6.14144 222.971 7.75944 222.397 9.36004C221.457 11.9697 220.378 14.5794 219.335 17.1021C219.091 17.7171 218.776 18.3011 218.395 18.8419C218.21 19.2193 217.915 19.5325 217.55 19.7412C217.185 19.9498 216.766 20.0443 216.346 20.0125C215.927 19.9806 215.527 19.824 215.197 19.5626C214.868 19.3012 214.624 18.9472 214.498 18.5461C214.208 18.0095 214.042 17.4152 214.011 16.8063C214.011 14.649 214.011 12.4916 214.011 10.3343C214.107 8.91511 214.107 7.49106 214.011 6.07185C213.837 4.8018 212.984 4.45385 211.871 5.11497C211.142 5.476 210.493 5.97901 209.961 6.59446C209.429 7.20991 209.026 7.9254 208.774 8.69892C208.712 9.14777 208.558 9.57907 208.323 9.96605C208.087 10.353 207.774 10.6874 207.404 10.9485C207.034 11.2095 206.614 11.3916 206.17 11.4835C205.726 11.5754 205.268 11.5751 204.825 11.4826C205.079 13.2172 205.553 14.9126 206.234 16.5279C206.631 17.8113 206.876 19.1368 206.965 20.4773C206.965 23.1565 206.826 25.8532 206.721 28.5499C206.705 31.1877 205.906 33.7613 204.425 35.9439H204.407ZM196.978 36.2397C195.5 37.6489 195.882 39.4931 195.83 41.2851C196.909 40.1194 198.77 39.7541 199.083 37.9099L196.978 36.2397ZM192.681 41.9462C192.683 42.2162 192.718 42.4851 192.785 42.7465H193.238C193.447 41.8592 193.673 41.0067 193.882 40.0846C194.195 38.7798 194.438 37.4576 194.786 36.1701C195.134 34.8827 195.552 33.7344 195.969 32.534C196.438 30.6551 197.115 28.8344 197.987 27.1058C199.727 24.2352 199.344 21.2776 199.24 18.2155L197.9 18.0242C196.161 17.7806 195.604 17.1021 195.847 15.3449C195.917 14.8966 196.022 14.4544 196.161 14.0227C196.279 13.595 196.267 13.1421 196.128 12.7209C195.988 12.2998 195.727 11.9294 195.378 11.6566C194.142 12.683 194.125 12.6656 194.055 13.6225C193.986 14.5794 194.055 15.1361 194.055 15.8842C194.101 16.4024 194.036 16.9242 193.864 17.4152C193.571 17.9844 193.101 18.4425 192.524 18.7201C192.155 18.8098 191.766 18.7506 191.44 18.5552C191.115 18.3598 190.879 18.044 190.785 17.6762C190.633 17.3295 190.5 16.9753 190.385 16.6149C190.12 15.2926 189.783 13.9858 189.375 12.7004C188.384 10.0386 187.288 7.48107 186.122 4.8192C185.618 3.67094 184.956 3.58395 184.034 4.41905C183.511 4.9399 183.055 5.52439 182.677 6.15884C182.525 6.52656 182.288 6.85311 181.986 7.1118C181.684 7.37049 181.324 7.55398 180.938 7.6473C180.551 7.74061 180.147 7.74109 179.76 7.6487C179.373 7.55632 179.014 7.37368 178.711 7.11572C178.049 6.73296 177.354 6.4372 176.64 6.07185C175.84 8.0378 177.197 8.8729 177.98 9.88197C178.989 11.1694 180.242 12.2829 181.251 13.5703C182.625 15.3101 183.304 17.9546 180.694 19.6596C179.963 19.2594 179.215 18.9289 178.519 18.4939C176.779 17.3978 175.04 16.2496 173.3 15.1709C172.395 14.6316 171.299 14.0227 170.481 15.1709C169.664 16.3192 170.621 16.9107 171.212 17.7284C172.186 19.068 172.047 19.8857 170.847 21.0514C170.473 21.4223 170.078 21.7709 169.664 22.0953C168.341 23.1217 168.272 24.1134 169.664 25.0181C170.798 25.7254 172.006 26.3087 173.265 26.7579C176.049 27.8365 179.024 28.3237 181.842 29.3502C184.204 30.1998 186.4 31.4537 188.332 33.0559C191.15 35.3698 193.116 38.1013 192.698 41.9462H192.681ZM168.759 51.254C168.759 52.6807 168.289 53.8985 166.706 54.1421C166.706 55.2033 166.706 56.0732 166.602 57.0649C168.341 57.3433 168.62 58.5959 168.428 60.2661C170.822 58.0901 172.353 55.1262 172.743 51.9152C172.743 50.0884 172.969 48.279 173.108 46.4522H173.752C175.266 50.3841 174.187 54.1943 172.761 58.074C173.484 57.812 174.165 57.4425 174.779 56.9779C179.098 53.814 183.17 50.3243 186.957 46.5392C187.962 45.5522 188.58 44.2372 188.697 42.8335C188.861 42.1003 188.875 41.3414 188.738 40.6027C188.6 39.8641 188.314 39.161 187.897 38.5362C186.55 39.2324 185.482 40.3681 184.869 41.7548C184.104 43.2162 183.53 44.7646 182.712 46.1913C181.88 47.7045 180.901 49.1322 179.789 50.4537C179.006 51.3584 178.189 51.1844 177.232 50.4537C176.827 50.1113 176.525 49.6634 176.359 49.1598C176.193 48.6562 176.17 48.1165 176.292 47.6005C176.518 45.9825 176.779 44.3471 176.971 42.7117C176.971 41.9288 177.18 41.0589 176.101 40.6414L173.874 44.3645C172.778 46.1043 172.012 46.1043 170.829 44.3645C170.633 44.1328 170.424 43.912 170.203 43.7034C169.339 45.014 168.884 46.5525 168.898 48.1224C168.759 49.1489 168.759 50.1928 168.759 51.254ZM141.723 52.3327C140.836 55.6557 140.627 55.8123 137.286 55.6209C137.165 55.6209 137.043 55.7427 136.747 55.8993C137.043 57.0475 135.825 58.0566 136.556 59.3788C138.709 63.8073 139.155 68.8738 137.808 73.6103C137.808 74.0278 137.808 74.4628 137.686 74.7237L142.906 76.2721C143.915 75.8372 145.429 75.2109 146.907 74.5323C149.343 73.4015 151.761 72.2184 154.18 71.0528C156.225 70.2647 158.025 68.9503 159.399 67.2427C160.101 66.3904 160.907 65.6304 161.8 64.9809C162.287 64.5982 163.174 64.5634 163.54 64.0936C164.444 62.667 165.158 61.1012 165.958 59.5702C165.771 59.283 165.542 59.025 165.279 58.8047C164.759 58.492 164.36 58.0118 164.149 57.4429C163.937 56.8739 163.925 56.2499 164.114 55.6731C164.288 55.0642 163.679 54.2465 163.453 53.5853C161.278 53.7767 160.704 55.2207 160.078 56.717C159.452 58.313 158.707 59.86 157.851 61.3448C157.692 61.6926 157.44 61.9898 157.123 62.2033C156.806 62.4169 156.436 62.5385 156.054 62.5547C155.673 62.5709 155.294 62.4811 154.96 62.2952C154.626 62.1093 154.35 61.8345 154.162 61.5014C153.806 61.107 153.57 60.6195 153.481 60.0958C153.391 59.5721 153.453 59.0338 153.658 58.5437C154.441 56.5256 155.397 54.5422 156.146 52.5241C157.363 49.4621 158.547 46.4174 159.625 43.338C159.661 43.1652 159.654 42.9864 159.605 42.8168C159.557 42.6472 159.468 42.4918 159.347 42.3637C159.191 42.2794 159.019 42.2281 158.843 42.2131C158.666 42.1981 158.488 42.2198 158.32 42.2767C157.985 42.4358 157.669 42.6344 157.381 42.8683C154.98 44.3819 153.901 44.1383 152.161 41.7374C151.953 41.4417 151.814 41.0763 151.605 40.7631C151.471 40.5059 151.275 40.2862 151.034 40.1241C150.794 39.962 150.516 39.8626 150.228 39.8349C149.939 39.8073 149.648 39.8522 149.381 39.9657C149.114 40.0792 148.88 40.2576 148.699 40.4848C148.256 41.0255 147.95 41.6655 147.807 42.3503C147.665 43.035 147.69 43.744 147.882 44.4167C148.56 48.0876 148.978 51.8108 149.413 55.5339C149.436 56.3572 149.33 57.1791 149.099 57.9696C148.957 58.4623 148.711 58.9188 148.378 59.3083C148.044 59.6977 147.631 60.0111 147.166 60.2271C146.701 60.4432 146.195 60.5569 145.682 60.5606C145.169 60.5643 144.661 60.458 144.193 60.2487C142.906 59.6224 143.149 58.3698 142.749 57.2911C144.489 57.2911 144.089 55.9341 144.193 54.9598C144.385 53.4114 144.646 51.7934 142.749 50.7321C142.454 50.9931 142.227 51.1149 142.14 51.2888C141.948 51.617 141.796 51.9676 141.688 52.3327H141.723ZM127.718 85.2494C130.81 82.7527 133.282 79.5725 134.938 75.959C135.645 74.3889 136.091 72.7142 136.26 71.0006C136.72 67.0261 135.968 63.0055 134.103 59.4658C133.881 58.9885 133.717 58.4861 133.615 57.9696C133.215 56.369 132.85 54.7858 132.45 53.1852C132.293 52.5415 132.102 51.8978 131.91 51.2366C130.971 47.9311 130.049 44.6081 129.075 41.3025C128.792 40.6256 128.442 39.9787 128.031 39.3713C126.291 39.928 124.69 41.3721 123.124 39.3713C121.089 40.9893 120.915 42.1202 122.342 43.6338C123.159 44.4863 124.081 45.1996 124.986 46.0521C125.305 46.3499 125.508 46.751 125.559 47.1842C125.61 47.6173 125.505 48.0546 125.264 48.4182C125.052 48.8712 124.673 49.2251 124.207 49.4065C123.74 49.5879 123.222 49.5828 122.759 49.3925C122.106 49.0879 121.515 48.6629 121.019 48.1398C118.735 45.6695 116.237 43.4049 113.556 41.3721C113.104 41.0477 112.575 40.8494 112.021 40.7974C111.468 40.7454 110.911 40.8417 110.407 41.0763C110.007 41.4718 109.728 41.9738 109.605 42.5227C109.482 43.0717 109.518 43.6444 109.711 44.1731C110.511 46.7654 110.476 46.922 108.302 48.6966C107.397 49.4447 106.91 50.245 107.397 51.1844L109.954 52.1935C110.335 52.4056 110.737 52.5748 111.155 52.6981C114.711 53.252 118.162 54.3493 121.385 55.9515C122.683 56.5406 123.899 57.2949 125.003 58.1958C126.291 59.2396 126.343 60.1965 125.595 61.8145C125.412 62.4465 124.99 62.9822 124.418 63.3072C123.846 63.6322 123.169 63.7209 122.533 63.5543C120.793 63.2933 119.053 62.8932 117.227 62.5974C116.566 62.5508 115.904 62.5508 115.243 62.5974C118.949 64.7548 120.097 67.4862 119.227 71.0876C118.984 72.114 119.541 72.6012 120.532 72.8274C121.397 72.8974 122.234 73.1624 122.981 73.6023C123.728 74.0422 124.366 74.6457 124.847 75.3674C126.428 77.4653 127.3 80.0128 127.335 82.6397C127.368 83.5209 127.496 84.3959 127.718 85.2494ZM99.3939 100.072C101.775 99.2175 104.099 98.2122 106.353 97.0626C110.128 95.114 113.817 92.9915 118.253 92.8001C118.897 92.8001 119.697 91.8084 119.993 91.0603C120.289 90.3122 119.61 89.7903 119.001 89.3205C117 87.7721 116.948 87.0936 118.514 85.1102C118.604 84.9514 118.675 84.7819 118.723 84.6057C117.366 83.9098 116.566 84.7449 115.643 85.3886C114.428 86.2457 113.155 87.0188 111.833 87.7025C111.463 87.8716 111.049 87.9206 110.65 87.8426C110.251 87.7646 109.886 87.5635 109.606 87.2676C109.314 86.9156 109.132 86.4855 109.083 86.0307C109.033 85.5759 109.118 85.1167 109.328 84.7101C109.578 84.2555 109.851 83.8142 110.146 83.3878C110.895 82.1898 111.558 80.9398 112.129 79.6473C112.604 78.2247 112.982 76.7715 113.26 75.2978C114.078 71.8183 113.677 71.4007 110.128 71.3659C108.389 71.3659 107.832 70.844 107.64 69.1738C107.64 69.0172 107.64 68.878 107.64 68.7215C107.466 67.3644 106.736 66.5989 105.727 66.7033C105.406 66.7201 105.092 66.8072 104.809 66.9586C104.525 67.1099 104.279 67.3217 104.086 67.579C103.893 67.8363 103.76 68.1328 103.695 68.4475C103.629 68.7622 103.634 69.0873 103.709 69.4C104.079 71.0035 104.561 72.5791 105.153 74.1148C106.192 76.7941 106.32 79.741 105.518 82.5006C105.335 83.1606 104.981 83.7607 104.491 84.2403C103.03 85.7018 101.499 85.319 101.012 83.3183C100.751 82.2396 100.733 81.1087 100.542 79.9953C100.403 79.2472 100.159 78.5165 99.794 77.1942C98.9241 78.2207 98.3674 78.7774 97.9498 79.3863C96.5754 81.4045 96.5058 81.4219 94.4703 80.0127C93.322 79.2124 92.5913 79.3342 91.8432 80.4476C91.5325 80.8316 91.3629 81.3107 91.3629 81.8046C91.3629 82.2986 91.5325 82.7777 91.8432 83.1617C92.2155 83.6324 92.6164 84.0798 93.0436 84.5013C93.7008 85.1234 94.2011 85.8923 94.5035 86.7452C94.806 87.598 94.9019 88.5104 94.7834 89.4075C94.5399 91.1473 94.2267 92.8871 93.9657 94.6269C93.6578 96.5751 92.6618 98.3485 91.1584 99.6253C89.655 100.902 87.7437 101.598 85.7713 101.586C82.861 101.6 79.9757 102.124 77.2464 103.134C72.5664 104.718 67.9038 106.405 63.3281 108.162C58.9961 109.902 54.6292 111.642 50.4015 113.382C45.9241 115.098 41.5601 117.097 37.3358 119.367C35.4046 120.497 33.3343 121.402 31.4553 122.637C27.767 125.038 24.1482 127.561 20.5468 130.084C19.5204 130.797 18.6331 131.667 17.6762 132.467L18.0764 133.059C18.3858 133.028 18.6866 132.939 18.9636 132.798C19.3797 132.404 19.8214 132.037 20.2859 131.702C21.8517 130.901 23.5045 130.24 25.0877 129.423C27.8713 127.961 30.6202 126.413 33.3865 124.916L43.7034 119.454C45.8955 118.305 48.1398 117.244 50.2972 115.974C55.6076 112.872 61.1648 110.213 66.9121 108.023C69.0823 107.164 71.2946 106.414 73.5407 105.779C77.0202 104.926 80.3954 104.248 83.875 103.656C86.1367 103.256 88.5028 103.343 90.7123 102.804C93.6567 102.062 96.5554 101.15 99.3939 100.072ZM121.402 93.6874C120.942 93.8859 120.509 94.1432 120.115 94.4529C122.289 95.5837 124.29 93.6004 126.187 94.7138C126.291 94.7138 126.621 94.3659 126.9 94.2615C129.283 93.322 130.884 94.2615 130.553 96.6102C131.234 96.8055 131.961 96.7619 132.613 96.4864C133.265 96.211 133.803 95.7205 134.137 95.0966C133.424 93.6526 131.823 92.7479 132.015 90.6601C132.989 90.1208 134.05 89.4597 135.199 88.9204C137.321 87.9635 139.879 87.8069 141.218 85.4408C141.357 85.1972 141.897 85.2146 142.193 85.0406C143.238 84.5173 144.234 83.9001 145.168 83.1965C145.375 82.9621 145.527 82.6839 145.611 82.3825C145.695 82.0812 145.71 81.7646 145.655 81.4567C145.446 80.6738 144.646 80.7782 143.915 80.9348C143.344 81.0686 142.761 81.1444 142.175 81.1609C140.14 81.1609 139.687 80.5172 140.435 78.5338C140.497 78.2758 140.544 78.0144 140.575 77.7509C137.721 76.8463 136.643 77.2812 135.077 79.7865C133.993 81.8856 132.496 83.7438 130.675 85.2494C128.466 86.7978 126.169 88.2244 123.89 89.6337C123.125 90.1034 122.307 90.434 122.655 91.6866C124.587 91.0278 126.363 89.9797 127.874 88.6072C129.93 86.8845 132.29 85.5627 134.833 84.7101C136.225 84.2925 137.565 83.6662 138.974 83.1095C140.105 84.1012 140.087 84.9885 138.87 85.5104C138.512 85.6207 138.145 85.6964 137.773 85.7366C134.926 86.3801 132.227 87.5611 129.823 89.2161C127.299 91.1881 124.449 92.7015 121.402 93.6874ZM125.525 98.9067C125.525 98.1064 125.525 97.3061 125.438 96.3318C125.291 96.2893 125.139 96.2602 124.986 96.2449C121.263 96.2449 117.54 96.1057 113.834 96.1231C112.944 96.1802 112.071 96.3983 111.259 96.7668C109.606 97.4279 107.867 98.2978 106.127 99.1677C105.693 99.4096 105.285 99.6953 104.909 100.02C106.874 99.897 108.818 99.5467 110.702 98.9763C113.155 98.3302 115.749 98.4763 118.114 99.3939C120.126 99.9362 122.18 100.303 124.255 100.49C125.421 100.577 125.647 100.159 125.525 98.9241V98.9067ZM128.379 101.342C132.572 101.673 133.998 100.907 133.842 98.3326L128.622 98.5588C128.518 99.4809 128.448 100.42 128.379 101.36V101.342ZM128.379 104.283C128.379 104.091 128.292 103.917 128.257 103.726L111.346 106.266L114.408 108.563C116.566 107.867 118.966 107.084 121.246 106.127C123.525 105.17 126.169 105.448 128.379 104.387V104.283ZM79.4733 116.566C84.1012 115.626 88.6594 114.356 93.235 113.208C93.9618 113.02 94.6673 112.758 95.3402 112.425C97.2887 111.468 99.2373 110.459 101.168 109.45C101.578 109.19 101.962 108.893 102.317 108.563L102.108 108.145C86.4499 110.946 71.1398 114.948 57.0997 123.055C57.3018 123.082 57.5065 123.082 57.7086 123.055C58.6481 122.777 59.5876 122.533 60.5097 122.185C66.6676 119.799 73.0099 117.92 79.4733 116.566ZM113.782 113.312C114.182 113.312 114.6 113.121 115 113.034C114.44 112.642 113.769 112.441 113.086 112.46C111.346 112.46 111.033 111.99 111.346 110.25C111.346 109.885 111.503 109.537 111.625 109.032C110.845 108.645 109.993 108.426 109.124 108.39C108.255 108.354 107.388 108.502 106.579 108.823C104.839 109.467 103.221 110.459 101.516 111.242C98.9868 112.537 96.391 113.698 93.7396 114.721C91.7214 115.435 89.4423 115.417 87.3893 116.044C83.6662 117.174 79.7343 117.609 76.2547 119.523C75.8525 119.661 75.4234 119.703 75.0021 119.645C74.1428 119.573 73.2779 119.608 72.4272 119.749C69.7479 120.55 67.2079 121.489 64.5112 122.359C59.1701 124.099 53.8115 125.839 48.54 127.683C45.2344 128.866 42.0332 130.362 38.7972 131.736C32.1245 134.437 25.3054 136.76 18.3721 138.696C14.649 139.792 10.8389 140.679 7.08092 141.671C5.34114 142.123 4.68002 142.958 4.31466 145.15C6.57638 144.68 8.75111 144.159 10.9606 143.776C19.3464 142.28 26.8623 138.556 34.4825 134.938C39.0234 132.815 43.7382 131.041 48.4008 129.162C49.3577 128.779 50.4189 128.64 51.3932 128.274C53.9333 127.196 56.5604 126.169 59.1527 125.264C59.5661 125.082 59.9902 124.925 60.4227 124.795C62.6148 124.151 64.807 123.455 67.0165 122.881C70.9136 121.785 74.8107 120.724 78.7774 120.045C80.7652 119.723 82.7919 119.723 84.7797 120.045C86.0085 120.39 87.1806 120.911 88.2592 121.594L98.9067 126.413C100.899 127.302 102.679 128.607 104.126 130.24C105.379 131.632 106.666 132.989 107.936 134.346L111.416 137.93C111.799 137.269 112.059 136.921 112.251 136.538C113.399 134.207 114.252 133.963 116.444 135.32C117.035 135.686 117.696 135.947 118.375 136.277C119.036 135.059 119.071 134.172 118.184 133.407C117.296 132.641 116.305 131.667 115.278 131.023C113.643 129.84 111.92 128.796 110.268 127.544C109.901 127.281 109.637 126.899 109.521 126.463C109.405 126.027 109.443 125.564 109.63 125.154C109.817 124.743 110.14 124.41 110.545 124.211C110.95 124.013 111.412 123.961 111.851 124.064C113.475 124.326 115.079 124.698 116.653 125.177C119.384 126.204 121.994 127.526 124.708 128.657C126.621 129.44 128.587 130.084 130.345 130.71C131.545 129.962 131.754 129.196 131.301 128.222L130.466 126.482C129.51 124.412 130.153 123.368 132.467 123.159L133.807 123.02C133.742 122.548 133.544 122.104 133.236 121.74C132.928 121.377 132.522 121.108 132.067 120.967C130.895 120.494 129.684 120.121 128.448 119.854C124.822 119.364 121.157 119.23 117.505 119.454C115.857 119.611 114.196 119.36 112.668 118.723C112.255 118.549 111.904 118.252 111.665 117.872C111.425 117.493 111.308 117.049 111.329 116.6C111.258 115.846 111.47 115.092 111.923 114.485C112.376 113.877 113.039 113.46 113.782 113.312ZM145.655 123.751L142.471 122.011C141.827 123.542 141.288 124.864 140.731 126.413C142.958 126.326 143.619 124.325 145.655 123.733V123.751ZM153.014 113.312L153.953 114.269C155.989 116.339 155.954 116.792 153.745 118.688C153.543 118.852 153.38 119.059 153.269 119.294C153.157 119.528 153.1 119.785 153.101 120.045C153.362 121.889 152.162 122.603 150.822 123.212C149.952 123.594 149.082 123.855 148.125 124.168C148.265 126.58 147.564 128.966 146.142 130.919C145.202 132.659 143.828 134.19 143.776 136.138C144.919 136.397 146.084 136.549 147.255 136.59C148.891 136.59 150.039 136.956 150.457 138.696L152.196 137.321C152.666 138.574 150.717 138.713 150.944 139.861C152.231 140.192 152.388 140.209 153.049 139.444C154.609 137.719 155.584 135.545 155.832 133.233C156.044 131.527 156.387 129.84 156.859 128.187C157.102 127.248 157.468 126.274 158.755 126.308C159.279 126.361 159.772 126.583 160.158 126.941C160.544 127.299 160.803 127.773 160.895 128.292C160.982 128.734 160.982 129.189 160.895 129.631C160.812 130.318 160.865 131.015 161.054 131.681C161.242 132.347 161.56 132.969 161.991 133.511L167.019 132.224C167.019 132.224 167.019 132.415 167.019 132.224C166.584 127.422 165.958 122.69 162.461 118.914C161.707 118.185 161.052 117.361 160.512 116.461C158.877 113.086 156.146 113.19 153.101 113.364L153.014 113.312ZM167.019 104.979C166.51 104.644 166.152 104.122 166.025 103.526C165.898 102.93 166.012 102.308 166.341 101.795C166.474 101.508 166.585 101.212 166.671 100.907C166.303 100.279 165.721 99.8027 165.031 99.5665C164.342 99.3302 163.59 99.3492 162.913 99.62C161.806 99.8483 160.747 100.266 159.782 100.855C156.521 102.821 153.01 104.337 149.343 105.361C148.782 105.573 148.184 105.666 147.585 105.636C146.987 105.606 146.4 105.454 145.863 105.187C145.439 105.076 145.058 104.841 144.768 104.512C144.477 104.184 144.291 103.776 144.234 103.341C144.176 102.907 144.249 102.465 144.443 102.072C144.637 101.678 144.944 101.352 145.324 101.134C145.791 100.751 146.286 100.402 146.803 100.09C147.969 99.2895 149.204 98.5588 150.283 97.6889C150.978 97.1495 152.022 96.6624 151.587 95.3228C151.231 95.2167 150.863 95.1582 150.491 95.1488C149.674 95.1488 148.873 95.3924 148.056 95.4967C147.238 95.6011 146.142 95.6707 145.533 94.5921C144.437 92.5913 143.236 92.3303 141.201 93.3568C139.635 94.1571 139.183 95.6707 138.504 97.0799C137.016 100.507 134.681 103.501 131.719 105.779C131.081 106.256 130.353 106.6 129.579 106.788C126.587 107.536 123.577 108.162 120.584 108.858C120.178 109.031 119.797 109.259 119.454 109.537C120.025 109.674 120.621 109.674 121.193 109.537C123.281 109.363 125.369 108.563 127.439 109.363C129.192 110.012 130.885 110.809 132.502 111.746C136.625 114.182 140.609 116.844 144.68 119.245C146.13 120.002 147.684 120.541 149.291 120.845C150.091 121.054 151.031 120.724 151.031 119.61C150.914 118.934 151.034 118.238 151.37 117.639C151.706 117.04 152.237 116.575 152.875 116.322C152.875 116.131 152.875 115.939 152.875 115.765L150.613 114.547C150.003 114.315 149.42 114.018 148.873 113.66C147.499 112.547 147.725 111.137 149.378 110.581C150.165 110.336 150.99 110.23 151.814 110.268C155.85 110.372 159.886 110.581 163.992 110.633C165.487 110.676 166.981 110.506 168.428 110.128C170.307 109.606 170.568 108.702 169.455 107.153C168.735 106.332 167.917 105.601 167.019 104.979ZM169.403 104.178L168.637 102.004C167.941 103.169 168.481 103.639 169.42 104.178H169.403ZM185.513 114.53C185.682 113.495 185.992 112.488 186.435 111.538C186.825 110.916 187.274 110.334 187.775 109.798L189.515 111.746C190.315 108.128 189.115 102.578 187.114 100.89C187.179 101.782 187.114 102.679 186.922 103.552C185.966 106.109 184.887 108.615 183.739 111.103C183.53 111.59 182.869 111.903 182.19 112.494C182.087 112.015 181.918 111.552 181.686 111.12C180.346 109.38 180.346 109.154 182.277 108.476C183.391 108.093 183.582 107.519 183.06 106.649C182.538 105.779 182.747 104.909 183.721 104.752C185.026 104.422 185.165 103.482 185.461 102.421C185.737 100.281 185.535 98.1061 184.869 96.0535C184.49 94.0001 183.444 92.1291 181.894 90.7297C181.633 91.8084 182.625 93.0784 180.938 93.6352L180.102 91.7388C177.91 91.7388 179.267 94.6442 177.406 94.8182C177.173 94.5077 177.011 94.15 176.932 93.7704C176.852 93.3907 176.856 92.9982 176.944 92.6204C177.032 92.2425 177.201 91.8884 177.44 91.5828C177.679 91.2773 177.982 91.0277 178.328 90.8515C179.267 90.2252 180.259 89.6685 181.233 89.1117L181.077 88.642C179.076 88.729 177.075 88.7638 175.092 88.9204C174.877 88.9694 174.675 89.0629 174.498 89.1947C174.321 89.3265 174.174 89.4938 174.065 89.6859C173.178 91.1125 172.326 92.5913 171.386 94.3659C171.701 94.4217 172.01 94.5091 172.308 94.6269C173.683 95.2706 173.926 95.8795 173.352 97.2365C173.212 97.5015 173.055 97.7572 172.882 98.002C171.804 99.881 171.873 100.612 173.126 101.221C174.379 101.83 174.866 101.325 175.77 99.6026C176.206 98.658 176.736 97.7603 177.354 96.9234C178.032 96.0709 179.476 96.0187 179.859 96.8016C180.482 97.9794 180.894 99.2571 181.077 100.577C181.082 101.764 180.876 102.942 180.468 104.056C179.667 106.84 178.728 109.624 177.893 112.407C177.427 113.509 177.353 114.738 177.684 115.887C177.887 115.953 178.097 115.994 178.31 116.009C180.381 115.73 181.216 116.357 181.425 118.305C181.429 118.747 181.518 119.184 181.686 119.593C181.86 119.958 182.277 120.532 182.486 120.497C182.719 120.442 182.938 120.34 183.13 120.196C183.321 120.052 183.481 119.871 183.599 119.662C184.549 118.083 185.203 116.344 185.531 114.53H185.513ZM200.075 105.535C199.767 105.099 199.628 104.567 199.682 104.036C199.737 103.505 199.981 103.012 200.371 102.647C201.241 101.795 202.111 102.212 203.068 102.647C204.024 103.082 204.807 103.674 205.729 104.23C205.851 103.978 205.919 103.702 205.928 103.422C205.937 103.141 205.888 102.862 205.783 102.602C205.678 102.341 205.52 102.106 205.319 101.91C205.119 101.714 204.879 101.562 204.616 101.464C203.85 100.984 203.054 100.554 202.232 100.177C200.166 99.0748 197.976 98.2221 195.708 97.6367C195.708 98.5066 195.534 99.2199 195.447 99.9332C196.335 100.316 197.431 100.42 197.031 101.864L196.195 101.743H195.378C195.378 103.813 195.378 104.074 196.248 104.683C198.196 105.935 197.726 107.988 198.196 109.711C198.196 109.937 197.883 110.285 197.709 110.598C197.344 110.372 196.735 110.198 196.7 109.937C196.68 109.27 196.744 108.604 196.891 107.954C196.317 107.292 195.726 106.614 195.152 105.918C194.307 105.038 193.72 103.944 193.453 102.754C193.186 101.564 193.25 100.324 193.638 99.1677C194.212 97.5845 193.969 97.1147 192.542 96.2275L190.802 95.201C189.88 94.6443 189.845 93.9831 190.646 93.1306L193.307 94.6269L196.526 93.5134L197.796 91.1647L199.397 92.6957C201.136 92.2781 202.876 92.2433 203.398 90.2078C203.398 89.999 204.39 89.8076 204.72 89.9642C205.051 90.1208 205.503 90.7993 205.869 91.2169C207.347 91.2169 208.774 91.2169 209.453 89.4771L211.297 90.7471C210.653 91.3909 210.235 92.1216 209.661 92.2955C208.165 92.7305 206.565 92.8349 205.068 93.235C202.381 93.7031 199.785 94.5957 197.378 95.8795C199.104 97.3018 201.209 98.1852 203.433 98.4196C203.623 97.6937 204.066 97.059 204.681 96.6288C205.296 96.1987 206.043 96.0009 206.791 96.0709C208.339 96.0709 209.905 96.0709 211.453 96.0709C213.461 95.941 215.459 95.697 217.438 95.3402C217.752 95.2582 218.04 95.1014 218.28 94.8832C218.519 94.665 218.702 94.392 218.813 94.0875C218.813 93.6526 218.238 93.0089 217.769 92.6087C217.212 92.2494 216.631 91.9296 216.029 91.6518C215.229 91.1473 214.289 90.7471 213.767 89.912C213.245 89.0769 213.558 88.1723 213.471 87.0588C212.863 86.7804 212.08 86.1193 211.384 86.1889C208.919 86.3924 206.475 86.7998 204.077 87.4068C201.641 88.0853 199.344 89.2509 196.961 90.1208C193.664 91.2266 190.183 91.6758 186.714 91.443C187.516 94.3222 188.534 97.137 189.758 99.8636C191.838 103.605 193.318 107.65 194.142 111.851C194.363 113.038 195.021 114.1 195.987 114.826C196.235 115.054 196.527 115.229 196.846 115.34C197.165 115.45 197.503 115.494 197.839 115.468C198.176 115.442 198.503 115.346 198.801 115.188C199.099 115.03 199.361 114.812 199.571 114.547C201.206 112.808 201.728 112.912 203.346 114.652L206.234 117.749C206.581 116.441 206.553 115.062 206.153 113.77C205.753 112.478 204.997 111.324 203.972 110.441C203.172 109.641 202.424 108.806 201.711 107.954C201.095 107.198 200.547 106.388 200.075 105.535ZM221.631 117.714C221.751 116.908 221.792 116.092 221.753 115.278C221.857 112.094 222.692 111.468 225.807 112.181C226.155 112.319 226.528 112.384 226.903 112.373C227.447 112.229 227.976 112.037 228.486 111.799C226.838 108.553 224.096 105.996 220.744 104.578C215.84 102.378 210.795 100.506 205.642 98.9763C205.486 98.9763 205.26 99.0981 205.068 99.1677C204.877 99.2373 205.068 99.3765 205.068 99.4113C205.486 99.8288 205.903 100.246 206.338 100.647C209.192 103.239 212.236 105.448 216.307 105.605C216.707 105.605 217.473 105.988 217.456 106.109C217.229 107.484 218.552 107.849 219.039 108.823C219.207 109.389 219.306 109.974 219.335 110.563L215.855 108.51C215.855 109.38 215.994 109.989 216.081 110.789C213.802 110.511 214.028 108.615 213.506 107.414L209.052 104.926C208.913 105.414 208.757 105.883 208.565 106.527L206.826 105.309L206.547 105.674C207.067 106.312 207.65 106.895 208.287 107.414C210.147 108.69 211.722 110.337 212.915 112.251C213.854 113.608 214.655 115 215.768 116.287C216.53 117.307 217.432 118.215 218.447 118.984C218.715 119.186 219.03 119.316 219.362 119.36C219.694 119.405 220.032 119.363 220.344 119.239C220.655 119.115 220.929 118.912 221.14 118.651C221.35 118.39 221.489 118.079 221.544 117.749L221.631 117.714ZM146.142 108.423C147.69 108.249 149.326 107.466 150.474 108.615C152.701 108.145 154.667 107.849 156.581 107.31C158.494 106.771 160.321 106.04 161.939 105.466C161.748 104.561 161.556 103.726 161.278 102.473C160.46 103.03 159.677 103.326 159.312 103.9C158.954 104.415 158.492 104.848 157.955 105.172C157.419 105.496 156.82 105.702 156.198 105.779C155.032 106.057 153.936 106.562 152.718 105.779C152.509 105.657 152.144 105.779 151.866 105.779C148.786 106.318 145.724 106.962 142.645 107.414C141.345 107.446 140.045 107.347 138.765 107.119C139.948 105.883 140.836 105.083 141.549 104.161C142.262 103.239 143.48 102.543 142.993 100.681L140.157 103.448C139.809 102.804 139.496 102.265 138.922 101.255C138.643 102.195 138.313 102.682 138.417 102.995C138.65 103.755 138.627 104.571 138.35 105.316C138.073 106.061 137.559 106.695 136.886 107.119C135.442 107.014 133.981 106.858 132.502 106.84C132.264 106.86 132.034 106.941 131.836 107.075C131.638 107.209 131.478 107.392 131.371 107.606C131.267 107.936 131.649 108.545 131.997 108.823C133.217 109.688 134.7 110.101 136.19 109.989C138.124 110.006 139.998 110.667 141.514 111.868C142.923 112.999 144.472 113.956 145.95 115L146.316 114.634C145.603 112.094 143.028 111.155 141.566 109.258C143.08 109.05 144.593 108.615 146.142 108.423ZM215.403 60.8924C215.838 60.8924 216.534 60.8924 216.69 61.1186C217.873 63.015 220.17 62.0755 221.701 63.189C221.875 63.3107 222.431 62.9106 222.814 62.7366C222.673 62.3589 222.492 61.9973 222.275 61.6579C222.06 61.4475 221.797 61.2923 221.509 61.2056L215.089 58.8221C215.55 58.295 216.07 57.8222 216.638 57.4129C218.569 56.2994 220.518 55.1512 222.553 54.2291C226.502 52.4893 230.521 50.7495 234.523 49.1315C235.306 48.8183 236.036 48.5748 236.263 47.3917C234.349 46.6436 232.957 48.2964 231.043 48.4704C231.374 48.0006 231.513 47.7571 231.687 47.5483C232.139 47.0438 232.766 46.4348 232.07 45.8085C231.374 45.1822 230.626 45.9303 230.33 46.5044C229.81 47.4995 229.356 48.5283 228.973 49.5838L222.692 51.7238C222.397 51.0627 222.292 50.2798 221.909 50.0884C221.109 49.7056 220.483 50.1928 220.17 51.0279C219.996 51.515 219.839 52.0195 219.63 52.4893C219.422 52.959 219.23 53.5332 218.847 53.7941C217.543 54.6988 216.168 55.5339 214.376 56.5778C214.916 54.751 215.281 53.394 215.716 52.0717C216.151 50.7495 216.638 49.6882 216.986 48.4704C217.247 47.5831 217.177 46.7306 216.012 46.4174C215.281 48.366 214.585 50.158 213.924 51.9847C213.699 52.4579 213.546 52.9623 213.471 53.481C213.291 54.9032 212.685 56.2376 211.732 57.3085C211.279 57.9174 210.792 58.4915 210.392 59.0483C209.714 60.1617 210.183 60.9446 211.506 60.9098C212.828 60.875 214.15 60.8924 215.403 60.8924ZM233.879 80.6912C233.794 81.1963 233.558 81.6635 233.201 82.0308C232.209 82.7396 231.134 83.3239 229.999 83.7706C229.633 83.8854 229.315 84.1184 229.094 84.4331C228.874 84.7478 228.764 85.1266 228.782 85.5104C228.782 86.3803 229.495 86.5543 230.208 86.5716C232.221 86.8024 234.118 87.6328 235.654 88.9552C236.941 89.8424 238.246 90.6949 239.586 91.5648C239.98 91.8986 240.475 92.0917 240.991 92.1138C241.508 92.1358 242.017 91.9855 242.439 91.6866L240.09 89.6685C240.525 89.1987 240.873 88.7986 241.221 88.3984C240.779 88.0799 240.307 87.806 239.812 87.5807C239.303 87.4381 238.772 87.3909 238.246 87.4415C237.329 87.4359 236.423 87.2379 235.586 86.8603C234.75 86.4828 234.003 85.934 233.392 85.2494L243.605 84.8319C244.014 84.5287 244.482 84.3153 244.979 84.2055C247.055 84.0143 249.142 83.962 251.225 84.049C255.766 84.3795 260.289 84.8841 264.83 85.3016C265.305 85.2462 265.772 85.1352 266.222 84.9711C265.247 83.875 263.96 83.2313 264.482 81.3871C263.294 81.3891 262.116 81.6011 261.002 82.0134C259.268 82.897 257.277 83.1374 255.383 82.6919C251.068 82.1439 246.701 82.1439 242.387 82.6919C240.316 83.0399 238.211 83.1965 236.123 83.3878C235.53 83.3326 234.946 83.204 234.384 83.0051C235.027 82.5701 235.323 82.3962 235.602 82.17C238.237 79.7198 241.251 77.7106 244.527 76.2199C245.049 76.0286 245.362 75.3674 245.849 74.8455C245.351 74.4806 244.738 74.3094 244.123 74.3638C243.508 74.4182 242.934 74.6946 242.508 75.1413C242.079 75.5349 241.517 75.7533 240.934 75.7533C240.351 75.7533 239.789 75.5349 239.359 75.1413C239.359 75.1413 239.099 75.2457 238.82 75.3674C238.82 76.0112 238.942 76.7071 239.012 77.3508L236.158 79.4385L234.297 77.8553C234.105 79.3515 234.053 80.0301 233.879 80.6216V80.6912ZM154.719 133.963L154.18 135.164L155.119 134.259L154.719 133.963ZM192.733 30.5854C192.24 29.7184 192.031 28.7191 192.134 27.7271C192.237 26.7352 192.647 25.8002 193.307 25.0529C193.843 24.0149 194.213 22.8996 194.403 21.7473C194.502 21.3181 194.566 20.8818 194.595 20.4425C192.142 20.6338 192.681 23.6437 190.559 24.2352C189.723 21.8343 188.923 19.4856 188.071 17.1717C187.902 16.5441 187.551 15.9808 187.062 15.5537C185.922 14.8021 185.123 13.6342 184.835 12.3003C184.4 10.9084 183.878 9.53402 183.391 8.14219H182.677C182.677 8.80331 182.26 9.55141 182.451 10.1255C182.946 12.6215 183.947 14.9898 185.391 17.0847C186.164 18.0053 186.802 19.0303 187.288 20.1293C187.972 21.3313 188.321 22.6955 188.297 24.0786L183.721 22.3388C183.408 21.5559 184.243 20.1989 182.59 20.1641C182.225 20.8252 181.86 21.4341 181.529 22.0257C179.835 21.3233 178.021 20.957 176.188 20.947C176.362 22.3736 177.284 22.7912 178.31 23.0695C180.416 23.6263 182.538 24.0612 184.608 24.8093C187.131 25.6444 189.497 26.7579 190.228 29.7329C190.374 30.3138 190.668 30.8472 191.08 31.2813C191.258 31.3982 191.459 31.4744 191.67 31.5045C191.88 31.5346 192.095 31.5178 192.298 31.4553C192.44 31.3521 192.554 31.2155 192.63 31.0576C192.705 30.8998 192.741 30.7256 192.733 30.5506V30.5854ZM108.702 114.913C109.311 114.408 109.606 113.904 109.102 113.173C108.989 113.114 108.864 113.082 108.736 113.082C108.609 113.082 108.484 113.114 108.371 113.173C107.867 113.834 107.971 114.408 108.702 114.913ZM151.622 50.6625C151.344 51.863 150.752 53.2026 152.527 54.2291C152.927 52.1239 153.31 50.2276 153.71 48.2094C151.64 48.1398 151.848 49.6186 151.622 50.6625ZM140.435 61.5362C141.357 62.6148 142.419 63.5717 143.323 64.6678C145.307 67.0687 145.063 69.0694 142.801 71.0702C142.45 71.3491 142.134 71.6705 141.862 72.0271C141.73 72.1744 141.636 72.3512 141.587 72.5427C141.537 72.7341 141.535 72.9345 141.579 73.1271C141.624 73.3197 141.713 73.4989 141.841 73.6496C141.969 73.8002 142.131 73.918 142.314 73.993C143.876 73.0614 145.28 71.8868 146.472 70.5134C146.932 69.9523 147.485 69.4755 148.108 69.1042C149.726 68.3561 151.413 67.7472 153.084 67.0861C153.762 66.8251 154.719 66.7207 154.354 65.6595C153.988 64.5982 153.188 64.9287 152.44 65.1723C152.014 65.3058 151.596 65.4626 151.187 65.642C150.387 65.99 149.604 66.3728 148.717 66.7729C148.612 65.903 148.543 65.2941 148.421 64.4068C147.847 64.8591 147.534 65.1549 147.168 65.3811C146.862 65.5673 146.542 65.7301 146.211 65.8682L140.314 58.4393C140.112 58.6473 139.954 58.8941 139.851 59.1647C139.747 59.4354 139.699 59.7243 139.711 60.0138C139.722 60.3034 139.792 60.5877 139.917 60.8494C140.041 61.111 140.218 61.3447 140.435 61.5362ZM150.457 63.102C151.222 61.0838 151.814 59.518 152.353 57.8826C152.353 57.6912 152.127 57.3781 151.918 56.9431C150.178 58.2306 150.317 60.0399 149.726 61.5188C149.621 61.8319 150.039 62.2669 150.457 63.102ZM109.015 93.67C109.815 92.6087 109.137 91.8084 108.684 90.8167L103.465 91.0081C104.404 89.8598 105.205 88.8856 106.057 87.8243C107.034 86.5303 107.929 85.1764 108.736 83.7706C109.094 83.222 109.272 82.576 109.248 81.9217C109.223 81.2674 108.995 80.6369 108.597 80.1171C107.187 84.3525 104.439 88.0156 100.768 90.5558C100.119 89.0615 99.5841 87.5203 99.1677 85.9453C98.9067 84.5187 99.5156 82.9355 98.4892 81.3523C98.2108 81.6704 97.955 82.0076 97.7237 82.3614C97.5787 82.623 97.4564 82.8965 97.3583 83.1791C96.6102 83.3878 95.7925 82.4658 95.4793 83.5966C95.1662 84.7275 96.0013 84.7623 96.558 85.058C96.9609 85.2571 97.3877 85.4033 97.828 85.493C98.089 86.8326 98.3152 87.8591 98.4718 88.9726C98.7849 91.2169 98.9589 93.4612 96.906 95.1488C96.7279 95.3716 96.5923 95.6251 96.5058 95.8969C97.5845 96.6276 98.2456 95.8969 98.6805 95.2706C99.816 94.1276 101.32 93.4248 102.926 93.2872C103.465 93.9309 103.882 94.4703 104.544 95.2532L105.083 93.148C106.684 91.965 107.693 93.7396 109.015 93.67ZM109.606 73.8712C108.806 75.3298 108.536 77.0203 108.841 78.6556C110.511 76.5505 110.668 75.6632 109.606 73.8712ZM131.18 72.9143C131.946 71.1234 132.099 69.1295 131.615 67.2427L133.772 66.1118L131.301 64.5634C131.301 63.9023 131.301 63.189 131.301 62.493L133.041 62.1451C133.65 60.4053 131.719 60.7707 131.301 60.0921V55.9167C129.318 57.0997 130.275 58.9787 129.37 60.6489C128.73 57.9705 127.181 55.5971 124.986 53.9333C124.76 53.0982 125.908 52.0543 124.569 51.2714L123.368 51.7586C122.202 51.1496 121.176 50.5407 120.097 50.0188C119.019 49.4969 118.601 49.0445 118.775 47.9484C118.879 47.3047 118.775 46.7132 117.836 46.661L116.792 48.4878L113.956 47.4961C113.956 46.1043 114.443 44.6081 112.895 43.6512C111.781 44.9038 113.295 46.0347 112.895 46.9742L111.52 47.8093C111.829 48.2577 112.191 48.6667 112.599 49.0271C113.08 49.2445 113.581 49.4135 114.095 49.5316C116.861 50.5929 119.906 51.1323 122.098 53.394C122.985 54.2987 123.838 55.2729 124.708 56.1428C126.837 58.3716 128.384 61.0903 129.214 64.0588C129.453 65.0162 129.639 65.9862 129.77 66.9643C127.787 66.3206 126.674 64.4068 124.551 64.9287C124.585 65.4009 124.486 65.8733 124.265 66.2917C124.043 66.7101 123.708 67.0577 123.298 67.2948C123.055 67.434 123.09 68.1125 122.933 68.8259L127.109 67.6254L130.588 69.6783C130.327 70.4439 130.084 71.1398 129.823 71.9227C128.831 71.9227 127.961 71.9227 127.074 71.9227C126.187 71.9227 125.647 72.5316 126.117 73.5407L129.457 73.6277C129.008 74.4968 128.831 75.481 128.949 76.4523C129.066 77.4236 129.474 78.3369 130.118 79.0732C130.371 78.3393 130.574 77.5896 130.727 76.8289C130.735 75.5133 130.875 74.2019 131.145 72.9143H131.18ZM107.484 115.33C106.127 115.017 106.109 115.017 105.448 113.886C105.1 113.295 104.752 112.895 103.917 113.521L104.526 116.27C102.685 117.045 100.789 117.685 98.8545 118.184C97.6715 118.427 96.1579 118.601 95.375 117.488C93.6352 117.488 92.0694 117.749 90.5384 117.714C89.5119 117.714 89.2335 118.114 89.2161 119.123L91.0429 119.332C92.3104 119.337 93.5766 119.412 94.8356 119.558C95.9292 119.714 96.9882 120.055 97.9672 120.567C99.0203 121.194 100.006 121.929 100.907 122.759C101.75 123.371 102.48 124.125 103.065 124.986C103.969 126.726 105.744 127.37 107.171 128.953C107.399 128.487 107.449 127.954 107.311 127.454C107.174 126.954 106.857 126.522 106.423 126.239C105.698 125.614 105.018 124.94 104.387 124.221C103.796 123.577 103.291 122.846 102.647 122.185C102.004 121.524 101.795 121.333 101.395 120.932L120.776 123.246L121.785 126.065C123.525 125.804 122.255 124.499 122.985 123.664C123.423 123.677 123.859 123.723 124.29 123.803C124.773 123.985 125.267 124.137 125.769 124.255C126.134 124.255 126.5 123.977 126.865 123.82C126.681 123.497 126.471 123.189 126.239 122.898C125.96 122.62 125.438 122.463 125.334 122.15C124.725 120.497 124.377 120.219 122.881 120.985C121.945 121.431 120.893 121.577 119.871 121.402C115.487 120.915 111.172 120.515 106.701 120.01C105.528 119.795 104.367 119.522 103.221 119.193C104.387 117.279 107.153 117.714 107.484 115.33ZM154.023 135.286C154.023 135.286 154.023 135.164 154.023 135.094V135.286ZM222.692 32.6557C224.451 32.6393 226.202 32.4234 227.912 32.012C228.225 32.012 228.434 31.4031 228.677 31.0899C228.392 30.8119 228.063 30.5827 227.703 30.4114C227.259 30.3411 226.807 30.3411 226.363 30.4114L221.527 30.7594C221.527 29.8199 222.901 29.4371 221.927 28.2019C221.04 28.7412 220.187 29.3154 219.213 29.8547C218.778 30.0983 218.308 30.5158 217.873 30.4984C216.133 30.4984 214.394 30.2722 212.236 30.1157C213.628 28.9326 214.724 28.1497 215.716 27.2102C216.249 26.4411 216.962 25.814 217.793 25.3834C218.624 24.9528 219.547 24.7318 220.483 24.7397C220.883 24.7397 221.318 24.2874 221.735 24.0438L221.074 22.9825C220.953 22.8086 220.813 22.6694 220.657 22.4432C221.753 21.1036 222.884 19.8161 223.91 18.4765C225.493 16.4062 227.077 14.3358 228.538 12.1785C228.827 11.6925 229.003 11.1473 229.051 10.5838C229.099 10.0203 229.019 9.45314 228.816 8.92509L227.077 11.0476L226.05 10.0386C225.839 10.0969 225.645 10.205 225.483 10.3538C225.322 10.5025 225.199 10.6876 225.124 10.8937C225.049 11.0997 225.025 11.3207 225.053 11.5381C225.081 11.7556 225.16 11.9632 225.285 12.1437C225.49 12.5885 225.55 13.0867 225.457 13.5677C225.363 14.0487 225.12 14.4879 224.763 14.823C224.221 15.5385 223.64 16.2238 223.023 16.8759C221.544 18.4417 220.048 20.0075 218.534 21.5385C216.794 23.4001 214.863 25.2617 212.984 27.071C212.303 27.5759 211.582 28.0239 210.827 28.4107C210.949 26.4447 211.053 24.9311 211.158 23.4871L212.584 22.0779L210.514 20.6338C210.148 19.2594 209.348 17.7632 211.384 16.8411C211.527 16.6983 211.628 16.5192 211.677 16.323C211.726 16.1268 211.721 15.921 211.662 15.7276C211.53 15.5719 211.359 15.4532 211.167 15.383C210.975 15.3129 210.768 15.2938 210.566 15.3275C209.855 15.6086 209.174 15.9582 208.53 16.3714C208.53 17.3456 208.53 18.1112 208.53 18.8593C208.687 21.9735 208.878 25.0703 209 28.1845C209.11 28.7772 209.04 29.3893 208.798 29.9415C208.556 30.4936 208.154 30.9604 207.643 31.2813C207.417 31.4031 207.313 31.7337 207.156 31.9424C208.235 33.1081 208.27 33.1081 209.331 32.4818C209.87 32.1686 210.479 31.6815 211.071 31.7163C215.02 31.9772 218.865 32.4644 222.692 32.6557ZM229.321 12.857C229.826 12.7497 230.313 12.5679 230.765 12.3177C231.095 12.0567 231.2 11.5348 231.409 11.1346C230.939 11.0302 230.4 10.7171 230.034 10.8563C229.83 10.9064 229.641 11.0073 229.486 11.1496C229.331 11.292 229.214 11.4711 229.146 11.6705C229.079 11.87 229.062 12.0832 229.099 12.2906C229.136 12.498 229.224 12.6928 229.356 12.857H229.321Z" fill="#6CBE83"/>
</svg>
